<?xml version="1.0" encoding="utf-8" standalone="no"?>
<!DOCTYPE svg PUBLIC "-//W3C//DTD SVG 1.1//EN"
  "http://www.w3.org/Graphics/SVG/1.1/DTD/svg11.dtd">
<svg xmlns:xlink="http://www.w3.org/1999/xlink" width="864pt" height="576pt" viewBox="0 0 864 576" xmlns="http://www.w3.org/2000/svg" version="1.1">
 <metadata>
  <rdf:RDF xmlns:dc="http://purl.org/dc/elements/1.1/" xmlns:cc="http://creativecommons.org/ns#" xmlns:rdf="http://www.w3.org/1999/02/22-rdf-syntax-ns#">
   <cc:Work>
    <dc:type rdf:resource="http://purl.org/dc/dcmitype/StillImage"/>
    <dc:date>2024-12-13T18:23:54.521167</dc:date>
    <dc:format>image/svg+xml</dc:format>
    <dc:creator>
     <cc:Agent>
      <dc:title>Matplotlib v3.8.2, https://matplotlib.org/</dc:title>
     </cc:Agent>
    </dc:creator>
   </cc:Work>
  </rdf:RDF>
 </metadata>
 <defs>
  <style type="text/css">*{stroke-linejoin: round; stroke-linecap: butt}</style>
 </defs>
 <g id="figure_1">
  <g id="patch_1">
   <path d="M 0 576 
L 864 576 
L 864 0 
L 0 0 
z
" style="fill: #ffffff"/>
  </g>
  <g id="axes_1">
   <g id="patch_2">
    <path d="M 37.840625 523.645938 
L 270.088021 523.645938 
L 270.088021 25.918125 
L 37.840625 25.918125 
z
" style="fill: #ffffff"/>
   </g>
   <g id="PolyCollection_1">
    <defs>
     <path id="m7ab9e9327a" d="M 134.902241 -52.416028 
L 134.902241 -52.354062 
L 135.691114 -52.354062 
L 136.479987 -52.354062 
L 137.26886 -52.354062 
L 138.057733 -52.354062 
L 138.846606 -52.354062 
L 139.63548 -52.354062 
L 140.424353 -52.354062 
L 141.213226 -52.354062 
L 142.002099 -52.354062 
L 142.790972 -52.354062 
L 143.579845 -52.354062 
L 144.368718 -52.354062 
L 145.157592 -52.354062 
L 145.946465 -52.354062 
L 146.735338 -52.354062 
L 147.524211 -52.354062 
L 148.313084 -52.354062 
L 149.101957 -52.354062 
L 149.89083 -52.354062 
L 150.679704 -52.354062 
L 151.468577 -52.354062 
L 152.25745 -52.354062 
L 153.046323 -52.354062 
L 153.835196 -52.354062 
L 154.624069 -52.354062 
L 155.412942 -52.354062 
L 156.201816 -52.354062 
L 156.990689 -52.354062 
L 157.779562 -52.354062 
L 158.568435 -52.354062 
L 159.357308 -52.354062 
L 160.146181 -52.354062 
L 160.935055 -52.354062 
L 161.723928 -52.354062 
L 162.512801 -52.354062 
L 163.301674 -52.354062 
L 164.090547 -52.354062 
L 164.87942 -52.354062 
L 165.668293 -52.354062 
L 166.457167 -52.354062 
L 167.24604 -52.354062 
L 168.034913 -52.354062 
L 168.823786 -52.354062 
L 169.612659 -52.354062 
L 170.401532 -52.354062 
L 171.190405 -52.354062 
L 171.979279 -52.354062 
L 172.768152 -52.354062 
L 173.557025 -52.354062 
L 174.345898 -52.354062 
L 175.134771 -52.354062 
L 175.923644 -52.354062 
L 176.712517 -52.354062 
L 177.501391 -52.354062 
L 178.290264 -52.354062 
L 179.079137 -52.354062 
L 179.86801 -52.354062 
L 180.656883 -52.354062 
L 181.445756 -52.354062 
L 182.23463 -52.354062 
L 183.023503 -52.354062 
L 183.812376 -52.354062 
L 184.601249 -52.354062 
L 185.390122 -52.354062 
L 186.178995 -52.354062 
L 186.967868 -52.354062 
L 187.756742 -52.354062 
L 188.545615 -52.354062 
L 189.334488 -52.354062 
L 190.123361 -52.354062 
L 190.912234 -52.354062 
L 191.701107 -52.354062 
L 192.48998 -52.354062 
L 193.278854 -52.354062 
L 194.067727 -52.354062 
L 194.8566 -52.354062 
L 195.645473 -52.354062 
L 196.434346 -52.354062 
L 197.223219 -52.354062 
L 198.012092 -52.354062 
L 198.800966 -52.354062 
L 199.589839 -52.354062 
L 200.378712 -52.354062 
L 201.167585 -52.354062 
L 201.956458 -52.354062 
L 202.745331 -52.354062 
L 203.534205 -52.354062 
L 204.323078 -52.354062 
L 205.111951 -52.354062 
L 205.900824 -52.354062 
L 206.689697 -52.354062 
L 207.47857 -52.354062 
L 208.267443 -52.354062 
L 209.056317 -52.354062 
L 209.84519 -52.354062 
L 210.634063 -52.354062 
L 211.422936 -52.354062 
L 212.211809 -52.354062 
L 213.000682 -52.354062 
L 213.789555 -52.354062 
L 214.578429 -52.354062 
L 215.367302 -52.354062 
L 216.156175 -52.354062 
L 216.945048 -52.354062 
L 217.733921 -52.354062 
L 218.522794 -52.354062 
L 219.311667 -52.354062 
L 220.100541 -52.354062 
L 220.889414 -52.354062 
L 221.678287 -52.354062 
L 222.46716 -52.354062 
L 223.256033 -52.354062 
L 224.044906 -52.354062 
L 224.83378 -52.354062 
L 225.622653 -52.354062 
L 226.411526 -52.354062 
L 227.200399 -52.354062 
L 227.989272 -52.354062 
L 228.778145 -52.354062 
L 229.567018 -52.354062 
L 230.355892 -52.354062 
L 231.144765 -52.354062 
L 231.933638 -52.354062 
L 232.722511 -52.354062 
L 233.511384 -52.354062 
L 234.300257 -52.354062 
L 235.08913 -52.354062 
L 235.878004 -52.354062 
L 236.666877 -52.354062 
L 237.45575 -52.354062 
L 238.244623 -52.354062 
L 239.033496 -52.354062 
L 239.822369 -52.354062 
L 240.611242 -52.354062 
L 241.400116 -52.354062 
L 242.188989 -52.354062 
L 242.977862 -52.354062 
L 243.766735 -52.354062 
L 244.555608 -52.354062 
L 245.344481 -52.354062 
L 246.133355 -52.354062 
L 246.922228 -52.354062 
L 247.711101 -52.354062 
L 248.499974 -52.354062 
L 249.288847 -52.354062 
L 250.07772 -52.354062 
L 250.866593 -52.354062 
L 251.655467 -52.354062 
L 252.44434 -52.354062 
L 253.233213 -52.354062 
L 254.022086 -52.354062 
L 254.810959 -52.354062 
L 255.599832 -52.354062 
L 256.388705 -52.354062 
L 257.177579 -52.354062 
L 257.966452 -52.354062 
L 258.755325 -52.354062 
L 259.544198 -52.354062 
L 260.333071 -52.354062 
L 261.121944 -52.354062 
L 261.910818 -52.354062 
L 262.699691 -52.354062 
L 263.488564 -52.354062 
L 264.277437 -52.354062 
L 265.06631 -52.354062 
L 265.855183 -52.354062 
L 266.644056 -52.354062 
L 267.43293 -52.354062 
L 268.221803 -52.354062 
L 269.010676 -52.354062 
L 269.799549 -52.354062 
L 270.588422 -52.354062 
L 271.377295 -52.354062 
L 272.166168 -52.354062 
L 272.955042 -52.354062 
L 273.743915 -52.354062 
L 274.532788 -52.354062 
L 275.321661 -52.354062 
L 276.110534 -52.354062 
L 276.899407 -52.354062 
L 277.68828 -52.354062 
L 278.477154 -52.354062 
L 279.266027 -52.354062 
L 280.0549 -52.354062 
L 280.843773 -52.354062 
L 281.632646 -52.354062 
L 282.421519 -52.354062 
L 283.210393 -52.354062 
L 283.999266 -52.354062 
L 284.788139 -52.354062 
L 285.577012 -52.354062 
L 286.365885 -52.354062 
L 287.154758 -52.354062 
L 287.943631 -52.354062 
L 288.732505 -52.354062 
L 289.521378 -52.354062 
L 290.310251 -52.354062 
L 291.099124 -52.354062 
L 291.887997 -52.354062 
L 291.887997 -52.884848 
L 291.887997 -52.884848 
L 291.099124 -53.102111 
L 290.310251 -53.397927 
L 289.521378 -53.796432 
L 288.732505 -54.327585 
L 287.943631 -55.028034 
L 287.154758 -55.941937 
L 286.365885 -57.121687 
L 285.577012 -58.628437 
L 284.788139 -60.53237 
L 283.999266 -62.912589 
L 283.210393 -65.856562 
L 282.421519 -69.459017 
L 281.632646 -73.820226 
L 280.843773 -79.043639 
L 280.0549 -85.232873 
L 279.266027 -92.488077 
L 278.477154 -100.901789 
L 277.68828 -110.554427 
L 276.899407 -121.509602 
L 276.110534 -133.809509 
L 275.321661 -147.470665 
L 274.532788 -162.480277 
L 273.743915 -178.79352 
L 272.955042 -196.331969 
L 272.166168 -214.983377 
L 271.377295 -234.602911 
L 270.588422 -255.015863 
L 269.799549 -276.021772 
L 269.010676 -297.399758 
L 268.221803 -318.914822 
L 267.43293 -340.324755 
L 266.644056 -361.387277 
L 265.855183 -381.866998 
L 265.06631 -401.541829 
L 264.277437 -420.208487 
L 263.488564 -437.68685 
L 262.699691 -453.822988 
L 261.910818 -468.490816 
L 261.121944 -481.592415 
L 260.333071 -493.057156 
L 259.544198 -502.839866 
L 258.755325 -510.918289 
L 257.966452 -517.290146 
L 257.177579 -521.970094 
L 256.388705 -524.986831 
L 255.599832 -526.380551 
L 254.810959 -526.200906 
L 254.022086 -524.505518 
L 253.233213 -521.359051 
L 252.44434 -516.832757 
L 251.655467 -511.004396 
L 250.866593 -503.958367 
L 250.07772 -495.785885 
L 249.288847 -486.585075 
L 248.499974 -476.460814 
L 247.711101 -465.524264 
L 246.922228 -453.892011 
L 246.133355 -441.684827 
L 245.344481 -429.026066 
L 244.555608 -416.039782 
L 243.766735 -402.848648 
L 242.977862 -389.57181 
L 242.188989 -376.322767 
L 241.400116 -363.207404 
L 240.611242 -350.322273 
L 239.822369 -337.753189 
L 239.033496 -325.574198 
L 238.244623 -313.846939 
L 237.45575 -302.620402 
L 236.666877 -291.931062 
L 235.878004 -281.80335 
L 235.08913 -272.250415 
L 234.300257 -263.275123 
L 233.511384 -254.871232 
L 232.722511 -247.024692 
L 231.933638 -239.715009 
L 231.144765 -232.916625 
L 230.355892 -226.600278 
L 229.567018 -220.734282 
L 228.778145 -215.285708 
L 227.989272 -210.22143 
L 227.200399 -205.508999 
L 226.411526 -201.117348 
L 225.622653 -197.017295 
L 224.83378 -193.18186 
L 224.044906 -189.586395 
L 223.256033 -186.208558 
L 222.46716 -183.02815 
L 221.678287 -180.026864 
L 220.889414 -177.187992 
L 220.100541 -174.496122 
L 219.311667 -171.93688 
L 218.522794 -169.496749 
L 217.733921 -167.162969 
L 216.945048 -164.923552 
L 216.156175 -162.76737 
L 215.367302 -160.684315 
L 214.578429 -158.665489 
L 213.789555 -156.70337 
L 213.000682 -154.791933 
L 212.211809 -152.926676 
L 211.422936 -151.104534 
L 210.634063 -149.323676 
L 209.84519 -147.583195 
L 209.056317 -145.882718 
L 208.267443 -144.221994 
L 207.47857 -142.600489 
L 206.689697 -141.017062 
L 205.900824 -139.469762 
L 205.111951 -137.955771 
L 204.323078 -136.471531 
L 203.534205 -135.013014 
L 202.745331 -133.576141 
L 201.956458 -132.157272 
L 201.167585 -130.753731 
L 200.378712 -129.364272 
L 199.589839 -127.989448 
L 198.800966 -126.63181 
L 198.012092 -125.29591 
L 197.223219 -123.988094 
L 196.434346 -122.716087 
L 195.645473 -121.488418 
L 194.8566 -120.31372 
L 194.067727 -119.19998 
L 193.278854 -118.153793 
L 192.48998 -117.179699 
L 191.701107 -116.279641 
L 190.912234 -115.452591 
L 190.123361 -114.694359 
L 189.334488 -113.997593 
L 188.545615 -113.351953 
L 187.756742 -112.744435 
L 186.967868 -112.159811 
L 186.178995 -111.581165 
L 185.390122 -110.990472 
L 184.601249 -110.369217 
L 183.812376 -109.699012 
L 183.023503 -108.962221 
L 182.23463 -108.14256 
L 181.445756 -107.225681 
L 180.656883 -106.199716 
L 179.86801 -105.055781 
L 179.079137 -103.788409 
L 178.290264 -102.395899 
L 177.501391 -100.880553 
L 176.712517 -99.248761 
L 175.923644 -97.510936 
L 175.134771 -95.681263 
L 174.345898 -93.777261 
L 173.557025 -91.819169 
L 172.768152 -89.829175 
L 171.979279 -87.830523 
L 171.190405 -85.846543 
L 170.401532 -83.899665 
L 169.612659 -82.010467 
L 168.823786 -80.196827 
L 168.034913 -78.473219 
L 167.24604 -76.850209 
L 166.457167 -75.334177 
L 165.668293 -73.927267 
L 164.87942 -72.627588 
L 164.090547 -71.429621 
L 163.301674 -70.324814 
L 162.512801 -69.302321 
L 161.723928 -68.349821 
L 160.935055 -67.454372 
L 160.146181 -66.603234 
L 159.357308 -65.784619 
L 158.568435 -64.988313 
L 157.779562 -64.206151 
L 156.990689 -63.432307 
L 156.201816 -62.663413 
L 155.412942 -61.898504 
L 154.624069 -61.138803 
L 153.835196 -60.387391 
L 153.046323 -59.648779 
L 152.25745 -58.928433 
L 151.468577 -58.232289 
L 150.679704 -57.566284 
L 149.89083 -56.935948 
L 149.101957 -56.346059 
L 148.313084 -55.8004 
L 147.524211 -55.3016 
L 146.735338 -54.851068 
L 145.946465 -54.449017 
L 145.157592 -54.094546 
L 144.368718 -53.785784 
L 143.579845 -53.52007 
L 142.790972 -53.294141 
L 142.002099 -53.104333 
L 141.213226 -52.946767 
L 140.424353 -52.817512 
L 139.63548 -52.712732 
L 138.846606 -52.628786 
L 138.057733 -52.562317 
L 137.26886 -52.510298 
L 136.479987 -52.470058 
L 135.691114 -52.439287 
L 134.902241 -52.416028 
z
" style="stroke: #ff0000"/>
    </defs>
    <g clip-path="url(#p8785411381)">
     <use xlink:href="#m7ab9e9327a" x="0" y="576" style="fill: #ff0000; fill-opacity: 0.25; stroke: #ff0000"/>
    </g>
   </g>
   <g id="matplotlib.axis_1">
    <g id="xtick_1">
     <g id="line2d_1">
      <defs>
       <path id="mf3953d0e99" d="M 0 0 
L 0 3.5 
" style="stroke: #000000; stroke-width: 0.8"/>
      </defs>
      <g>
       <use xlink:href="#mf3953d0e99" x="37.840625" y="523.645938" style="stroke: #000000; stroke-width: 0.8"/>
      </g>
     </g>
     <g id="text_1">
      <!-- 0.0 -->
      <g transform="translate(29.889063 538.244375) scale(0.1 -0.1)">
       <defs>
        <path id="DejaVuSans-30" d="M 2034 4250 
Q 1547 4250 1301 3770 
Q 1056 3291 1056 2328 
Q 1056 1369 1301 889 
Q 1547 409 2034 409 
Q 2525 409 2770 889 
Q 3016 1369 3016 2328 
Q 3016 3291 2770 3770 
Q 2525 4250 2034 4250 
z
M 2034 4750 
Q 2819 4750 3233 4129 
Q 3647 3509 3647 2328 
Q 3647 1150 3233 529 
Q 2819 -91 2034 -91 
Q 1250 -91 836 529 
Q 422 1150 422 2328 
Q 422 3509 836 4129 
Q 1250 4750 2034 4750 
z
" transform="scale(0.015625)"/>
        <path id="DejaVuSans-2e" d="M 684 794 
L 1344 794 
L 1344 0 
L 684 0 
L 684 794 
z
" transform="scale(0.015625)"/>
       </defs>
       <use xlink:href="#DejaVuSans-30"/>
       <use xlink:href="#DejaVuSans-2e" x="63.623047"/>
       <use xlink:href="#DejaVuSans-30" x="95.410156"/>
      </g>
     </g>
    </g>
    <g id="xtick_2">
     <g id="line2d_2">
      <g>
       <use xlink:href="#mf3953d0e99" x="84.290104" y="523.645938" style="stroke: #000000; stroke-width: 0.8"/>
      </g>
     </g>
     <g id="text_2">
      <!-- 0.2 -->
      <g transform="translate(76.338542 538.244375) scale(0.1 -0.1)">
       <defs>
        <path id="DejaVuSans-32" d="M 1228 531 
L 3431 531 
L 3431 0 
L 469 0 
L 469 531 
Q 828 903 1448 1529 
Q 2069 2156 2228 2338 
Q 2531 2678 2651 2914 
Q 2772 3150 2772 3378 
Q 2772 3750 2511 3984 
Q 2250 4219 1831 4219 
Q 1534 4219 1204 4116 
Q 875 4013 500 3803 
L 500 4441 
Q 881 4594 1212 4672 
Q 1544 4750 1819 4750 
Q 2544 4750 2975 4387 
Q 3406 4025 3406 3419 
Q 3406 3131 3298 2873 
Q 3191 2616 2906 2266 
Q 2828 2175 2409 1742 
Q 1991 1309 1228 531 
z
" transform="scale(0.015625)"/>
       </defs>
       <use xlink:href="#DejaVuSans-30"/>
       <use xlink:href="#DejaVuSans-2e" x="63.623047"/>
       <use xlink:href="#DejaVuSans-32" x="95.410156"/>
      </g>
     </g>
    </g>
    <g id="xtick_3">
     <g id="line2d_3">
      <g>
       <use xlink:href="#mf3953d0e99" x="130.739583" y="523.645938" style="stroke: #000000; stroke-width: 0.8"/>
      </g>
     </g>
     <g id="text_3">
      <!-- 0.4 -->
      <g transform="translate(122.788021 538.244375) scale(0.1 -0.1)">
       <defs>
        <path id="DejaVuSans-34" d="M 2419 4116 
L 825 1625 
L 2419 1625 
L 2419 4116 
z
M 2253 4666 
L 3047 4666 
L 3047 1625 
L 3713 1625 
L 3713 1100 
L 3047 1100 
L 3047 0 
L 2419 0 
L 2419 1100 
L 313 1100 
L 313 1709 
L 2253 4666 
z
" transform="scale(0.015625)"/>
       </defs>
       <use xlink:href="#DejaVuSans-30"/>
       <use xlink:href="#DejaVuSans-2e" x="63.623047"/>
       <use xlink:href="#DejaVuSans-34" x="95.410156"/>
      </g>
     </g>
    </g>
    <g id="xtick_4">
     <g id="line2d_4">
      <g>
       <use xlink:href="#mf3953d0e99" x="177.189063" y="523.645938" style="stroke: #000000; stroke-width: 0.8"/>
      </g>
     </g>
     <g id="text_4">
      <!-- 0.6 -->
      <g transform="translate(169.2375 538.244375) scale(0.1 -0.1)">
       <defs>
        <path id="DejaVuSans-36" d="M 2113 2584 
Q 1688 2584 1439 2293 
Q 1191 2003 1191 1497 
Q 1191 994 1439 701 
Q 1688 409 2113 409 
Q 2538 409 2786 701 
Q 3034 994 3034 1497 
Q 3034 2003 2786 2293 
Q 2538 2584 2113 2584 
z
M 3366 4563 
L 3366 3988 
Q 3128 4100 2886 4159 
Q 2644 4219 2406 4219 
Q 1781 4219 1451 3797 
Q 1122 3375 1075 2522 
Q 1259 2794 1537 2939 
Q 1816 3084 2150 3084 
Q 2853 3084 3261 2657 
Q 3669 2231 3669 1497 
Q 3669 778 3244 343 
Q 2819 -91 2113 -91 
Q 1303 -91 875 529 
Q 447 1150 447 2328 
Q 447 3434 972 4092 
Q 1497 4750 2381 4750 
Q 2619 4750 2861 4703 
Q 3103 4656 3366 4563 
z
" transform="scale(0.015625)"/>
       </defs>
       <use xlink:href="#DejaVuSans-30"/>
       <use xlink:href="#DejaVuSans-2e" x="63.623047"/>
       <use xlink:href="#DejaVuSans-36" x="95.410156"/>
      </g>
     </g>
    </g>
    <g id="xtick_5">
     <g id="line2d_5">
      <g>
       <use xlink:href="#mf3953d0e99" x="223.638542" y="523.645938" style="stroke: #000000; stroke-width: 0.8"/>
      </g>
     </g>
     <g id="text_5">
      <!-- 0.8 -->
      <g transform="translate(215.686979 538.244375) scale(0.1 -0.1)">
       <defs>
        <path id="DejaVuSans-38" d="M 2034 2216 
Q 1584 2216 1326 1975 
Q 1069 1734 1069 1313 
Q 1069 891 1326 650 
Q 1584 409 2034 409 
Q 2484 409 2743 651 
Q 3003 894 3003 1313 
Q 3003 1734 2745 1975 
Q 2488 2216 2034 2216 
z
M 1403 2484 
Q 997 2584 770 2862 
Q 544 3141 544 3541 
Q 544 4100 942 4425 
Q 1341 4750 2034 4750 
Q 2731 4750 3128 4425 
Q 3525 4100 3525 3541 
Q 3525 3141 3298 2862 
Q 3072 2584 2669 2484 
Q 3125 2378 3379 2068 
Q 3634 1759 3634 1313 
Q 3634 634 3220 271 
Q 2806 -91 2034 -91 
Q 1263 -91 848 271 
Q 434 634 434 1313 
Q 434 1759 690 2068 
Q 947 2378 1403 2484 
z
M 1172 3481 
Q 1172 3119 1398 2916 
Q 1625 2713 2034 2713 
Q 2441 2713 2670 2916 
Q 2900 3119 2900 3481 
Q 2900 3844 2670 4047 
Q 2441 4250 2034 4250 
Q 1625 4250 1398 4047 
Q 1172 3844 1172 3481 
z
" transform="scale(0.015625)"/>
       </defs>
       <use xlink:href="#DejaVuSans-30"/>
       <use xlink:href="#DejaVuSans-2e" x="63.623047"/>
       <use xlink:href="#DejaVuSans-38" x="95.410156"/>
      </g>
     </g>
    </g>
    <g id="xtick_6">
     <g id="line2d_6">
      <g>
       <use xlink:href="#mf3953d0e99" x="270.088021" y="523.645938" style="stroke: #000000; stroke-width: 0.8"/>
      </g>
     </g>
     <g id="text_6">
      <!-- 1.0 -->
      <g transform="translate(262.136458 538.244375) scale(0.1 -0.1)">
       <defs>
        <path id="DejaVuSans-31" d="M 794 531 
L 1825 531 
L 1825 4091 
L 703 3866 
L 703 4441 
L 1819 4666 
L 2450 4666 
L 2450 531 
L 3481 531 
L 3481 0 
L 794 0 
L 794 531 
z
" transform="scale(0.015625)"/>
       </defs>
       <use xlink:href="#DejaVuSans-31"/>
       <use xlink:href="#DejaVuSans-2e" x="63.623047"/>
       <use xlink:href="#DejaVuSans-30" x="95.410156"/>
      </g>
     </g>
    </g>
    <g id="text_7">
     <!-- Cosine Similarity of  -->
     <g transform="translate(103.947917 551.9225) scale(0.1 -0.1)">
      <defs>
       <path id="DejaVuSans-43" d="M 4122 4306 
L 4122 3641 
Q 3803 3938 3442 4084 
Q 3081 4231 2675 4231 
Q 1875 4231 1450 3742 
Q 1025 3253 1025 2328 
Q 1025 1406 1450 917 
Q 1875 428 2675 428 
Q 3081 428 3442 575 
Q 3803 722 4122 1019 
L 4122 359 
Q 3791 134 3420 21 
Q 3050 -91 2638 -91 
Q 1578 -91 968 557 
Q 359 1206 359 2328 
Q 359 3453 968 4101 
Q 1578 4750 2638 4750 
Q 3056 4750 3426 4639 
Q 3797 4528 4122 4306 
z
" transform="scale(0.015625)"/>
       <path id="DejaVuSans-6f" d="M 1959 3097 
Q 1497 3097 1228 2736 
Q 959 2375 959 1747 
Q 959 1119 1226 758 
Q 1494 397 1959 397 
Q 2419 397 2687 759 
Q 2956 1122 2956 1747 
Q 2956 2369 2687 2733 
Q 2419 3097 1959 3097 
z
M 1959 3584 
Q 2709 3584 3137 3096 
Q 3566 2609 3566 1747 
Q 3566 888 3137 398 
Q 2709 -91 1959 -91 
Q 1206 -91 779 398 
Q 353 888 353 1747 
Q 353 2609 779 3096 
Q 1206 3584 1959 3584 
z
" transform="scale(0.015625)"/>
       <path id="DejaVuSans-73" d="M 2834 3397 
L 2834 2853 
Q 2591 2978 2328 3040 
Q 2066 3103 1784 3103 
Q 1356 3103 1142 2972 
Q 928 2841 928 2578 
Q 928 2378 1081 2264 
Q 1234 2150 1697 2047 
L 1894 2003 
Q 2506 1872 2764 1633 
Q 3022 1394 3022 966 
Q 3022 478 2636 193 
Q 2250 -91 1575 -91 
Q 1294 -91 989 -36 
Q 684 19 347 128 
L 347 722 
Q 666 556 975 473 
Q 1284 391 1588 391 
Q 1994 391 2212 530 
Q 2431 669 2431 922 
Q 2431 1156 2273 1281 
Q 2116 1406 1581 1522 
L 1381 1569 
Q 847 1681 609 1914 
Q 372 2147 372 2553 
Q 372 3047 722 3315 
Q 1072 3584 1716 3584 
Q 2034 3584 2315 3537 
Q 2597 3491 2834 3397 
z
" transform="scale(0.015625)"/>
       <path id="DejaVuSans-69" d="M 603 3500 
L 1178 3500 
L 1178 0 
L 603 0 
L 603 3500 
z
M 603 4863 
L 1178 4863 
L 1178 4134 
L 603 4134 
L 603 4863 
z
" transform="scale(0.015625)"/>
       <path id="DejaVuSans-6e" d="M 3513 2113 
L 3513 0 
L 2938 0 
L 2938 2094 
Q 2938 2591 2744 2837 
Q 2550 3084 2163 3084 
Q 1697 3084 1428 2787 
Q 1159 2491 1159 1978 
L 1159 0 
L 581 0 
L 581 3500 
L 1159 3500 
L 1159 2956 
Q 1366 3272 1645 3428 
Q 1925 3584 2291 3584 
Q 2894 3584 3203 3211 
Q 3513 2838 3513 2113 
z
" transform="scale(0.015625)"/>
       <path id="DejaVuSans-65" d="M 3597 1894 
L 3597 1613 
L 953 1613 
Q 991 1019 1311 708 
Q 1631 397 2203 397 
Q 2534 397 2845 478 
Q 3156 559 3463 722 
L 3463 178 
Q 3153 47 2828 -22 
Q 2503 -91 2169 -91 
Q 1331 -91 842 396 
Q 353 884 353 1716 
Q 353 2575 817 3079 
Q 1281 3584 2069 3584 
Q 2775 3584 3186 3129 
Q 3597 2675 3597 1894 
z
M 3022 2063 
Q 3016 2534 2758 2815 
Q 2500 3097 2075 3097 
Q 1594 3097 1305 2825 
Q 1016 2553 972 2059 
L 3022 2063 
z
" transform="scale(0.015625)"/>
       <path id="DejaVuSans-20" transform="scale(0.015625)"/>
       <path id="DejaVuSans-53" d="M 3425 4513 
L 3425 3897 
Q 3066 4069 2747 4153 
Q 2428 4238 2131 4238 
Q 1616 4238 1336 4038 
Q 1056 3838 1056 3469 
Q 1056 3159 1242 3001 
Q 1428 2844 1947 2747 
L 2328 2669 
Q 3034 2534 3370 2195 
Q 3706 1856 3706 1288 
Q 3706 609 3251 259 
Q 2797 -91 1919 -91 
Q 1588 -91 1214 -16 
Q 841 59 441 206 
L 441 856 
Q 825 641 1194 531 
Q 1563 422 1919 422 
Q 2459 422 2753 634 
Q 3047 847 3047 1241 
Q 3047 1584 2836 1778 
Q 2625 1972 2144 2069 
L 1759 2144 
Q 1053 2284 737 2584 
Q 422 2884 422 3419 
Q 422 4038 858 4394 
Q 1294 4750 2059 4750 
Q 2388 4750 2728 4690 
Q 3069 4631 3425 4513 
z
" transform="scale(0.015625)"/>
       <path id="DejaVuSans-6d" d="M 3328 2828 
Q 3544 3216 3844 3400 
Q 4144 3584 4550 3584 
Q 5097 3584 5394 3201 
Q 5691 2819 5691 2113 
L 5691 0 
L 5113 0 
L 5113 2094 
Q 5113 2597 4934 2840 
Q 4756 3084 4391 3084 
Q 3944 3084 3684 2787 
Q 3425 2491 3425 1978 
L 3425 0 
L 2847 0 
L 2847 2094 
Q 2847 2600 2669 2842 
Q 2491 3084 2119 3084 
Q 1678 3084 1418 2786 
Q 1159 2488 1159 1978 
L 1159 0 
L 581 0 
L 581 3500 
L 1159 3500 
L 1159 2956 
Q 1356 3278 1631 3431 
Q 1906 3584 2284 3584 
Q 2666 3584 2933 3390 
Q 3200 3197 3328 2828 
z
" transform="scale(0.015625)"/>
       <path id="DejaVuSans-6c" d="M 603 4863 
L 1178 4863 
L 1178 0 
L 603 0 
L 603 4863 
z
" transform="scale(0.015625)"/>
       <path id="DejaVuSans-61" d="M 2194 1759 
Q 1497 1759 1228 1600 
Q 959 1441 959 1056 
Q 959 750 1161 570 
Q 1363 391 1709 391 
Q 2188 391 2477 730 
Q 2766 1069 2766 1631 
L 2766 1759 
L 2194 1759 
z
M 3341 1997 
L 3341 0 
L 2766 0 
L 2766 531 
Q 2569 213 2275 61 
Q 1981 -91 1556 -91 
Q 1019 -91 701 211 
Q 384 513 384 1019 
Q 384 1609 779 1909 
Q 1175 2209 1959 2209 
L 2766 2209 
L 2766 2266 
Q 2766 2663 2505 2880 
Q 2244 3097 1772 3097 
Q 1472 3097 1187 3025 
Q 903 2953 641 2809 
L 641 3341 
Q 956 3463 1253 3523 
Q 1550 3584 1831 3584 
Q 2591 3584 2966 3190 
Q 3341 2797 3341 1997 
z
" transform="scale(0.015625)"/>
       <path id="DejaVuSans-72" d="M 2631 2963 
Q 2534 3019 2420 3045 
Q 2306 3072 2169 3072 
Q 1681 3072 1420 2755 
Q 1159 2438 1159 1844 
L 1159 0 
L 581 0 
L 581 3500 
L 1159 3500 
L 1159 2956 
Q 1341 3275 1631 3429 
Q 1922 3584 2338 3584 
Q 2397 3584 2469 3576 
Q 2541 3569 2628 3553 
L 2631 2963 
z
" transform="scale(0.015625)"/>
       <path id="DejaVuSans-74" d="M 1172 4494 
L 1172 3500 
L 2356 3500 
L 2356 3053 
L 1172 3053 
L 1172 1153 
Q 1172 725 1289 603 
Q 1406 481 1766 481 
L 2356 481 
L 2356 0 
L 1766 0 
Q 1100 0 847 248 
Q 594 497 594 1153 
L 594 3053 
L 172 3053 
L 172 3500 
L 594 3500 
L 594 4494 
L 1172 4494 
z
" transform="scale(0.015625)"/>
       <path id="DejaVuSans-79" d="M 2059 -325 
Q 1816 -950 1584 -1140 
Q 1353 -1331 966 -1331 
L 506 -1331 
L 506 -850 
L 844 -850 
Q 1081 -850 1212 -737 
Q 1344 -625 1503 -206 
L 1606 56 
L 191 3500 
L 800 3500 
L 1894 763 
L 2988 3500 
L 3597 3500 
L 2059 -325 
z
" transform="scale(0.015625)"/>
       <path id="DejaVuSans-66" d="M 2375 4863 
L 2375 4384 
L 1825 4384 
Q 1516 4384 1395 4259 
Q 1275 4134 1275 3809 
L 1275 3500 
L 2222 3500 
L 2222 3053 
L 1275 3053 
L 1275 0 
L 697 0 
L 697 3053 
L 147 3053 
L 147 3500 
L 697 3500 
L 697 3744 
Q 697 4328 969 4595 
Q 1241 4863 1831 4863 
L 2375 4863 
z
" transform="scale(0.015625)"/>
      </defs>
      <use xlink:href="#DejaVuSans-43"/>
      <use xlink:href="#DejaVuSans-6f" x="69.824219"/>
      <use xlink:href="#DejaVuSans-73" x="131.005859"/>
      <use xlink:href="#DejaVuSans-69" x="183.105469"/>
      <use xlink:href="#DejaVuSans-6e" x="210.888672"/>
      <use xlink:href="#DejaVuSans-65" x="274.267578"/>
      <use xlink:href="#DejaVuSans-20" x="335.791016"/>
      <use xlink:href="#DejaVuSans-53" x="367.578125"/>
      <use xlink:href="#DejaVuSans-69" x="431.054688"/>
      <use xlink:href="#DejaVuSans-6d" x="458.837891"/>
      <use xlink:href="#DejaVuSans-69" x="556.25"/>
      <use xlink:href="#DejaVuSans-6c" x="584.033203"/>
      <use xlink:href="#DejaVuSans-61" x="611.816406"/>
      <use xlink:href="#DejaVuSans-72" x="673.095703"/>
      <use xlink:href="#DejaVuSans-69" x="714.208984"/>
      <use xlink:href="#DejaVuSans-74" x="741.992188"/>
      <use xlink:href="#DejaVuSans-79" x="781.201172"/>
      <use xlink:href="#DejaVuSans-20" x="840.380859"/>
      <use xlink:href="#DejaVuSans-6f" x="872.167969"/>
      <use xlink:href="#DejaVuSans-66" x="933.349609"/>
      <use xlink:href="#DejaVuSans-20" x="968.554688"/>
     </g>
     <!-- AB Tracts to CD Tracts -->
     <g transform="translate(98.896354 563.120313) scale(0.1 -0.1)">
      <defs>
       <path id="DejaVuSans-41" d="M 2188 4044 
L 1331 1722 
L 3047 1722 
L 2188 4044 
z
M 1831 4666 
L 2547 4666 
L 4325 0 
L 3669 0 
L 3244 1197 
L 1141 1197 
L 716 0 
L 50 0 
L 1831 4666 
z
" transform="scale(0.015625)"/>
       <path id="DejaVuSans-42" d="M 1259 2228 
L 1259 519 
L 2272 519 
Q 2781 519 3026 730 
Q 3272 941 3272 1375 
Q 3272 1813 3026 2020 
Q 2781 2228 2272 2228 
L 1259 2228 
z
M 1259 4147 
L 1259 2741 
L 2194 2741 
Q 2656 2741 2882 2914 
Q 3109 3088 3109 3444 
Q 3109 3797 2882 3972 
Q 2656 4147 2194 4147 
L 1259 4147 
z
M 628 4666 
L 2241 4666 
Q 2963 4666 3353 4366 
Q 3744 4066 3744 3513 
Q 3744 3084 3544 2831 
Q 3344 2578 2956 2516 
Q 3422 2416 3680 2098 
Q 3938 1781 3938 1306 
Q 3938 681 3513 340 
Q 3088 0 2303 0 
L 628 0 
L 628 4666 
z
" transform="scale(0.015625)"/>
       <path id="DejaVuSans-54" d="M -19 4666 
L 3928 4666 
L 3928 4134 
L 2272 4134 
L 2272 0 
L 1638 0 
L 1638 4134 
L -19 4134 
L -19 4666 
z
" transform="scale(0.015625)"/>
       <path id="DejaVuSans-63" d="M 3122 3366 
L 3122 2828 
Q 2878 2963 2633 3030 
Q 2388 3097 2138 3097 
Q 1578 3097 1268 2742 
Q 959 2388 959 1747 
Q 959 1106 1268 751 
Q 1578 397 2138 397 
Q 2388 397 2633 464 
Q 2878 531 3122 666 
L 3122 134 
Q 2881 22 2623 -34 
Q 2366 -91 2075 -91 
Q 1284 -91 818 406 
Q 353 903 353 1747 
Q 353 2603 823 3093 
Q 1294 3584 2113 3584 
Q 2378 3584 2631 3529 
Q 2884 3475 3122 3366 
z
" transform="scale(0.015625)"/>
       <path id="DejaVuSans-44" d="M 1259 4147 
L 1259 519 
L 2022 519 
Q 2988 519 3436 956 
Q 3884 1394 3884 2338 
Q 3884 3275 3436 3711 
Q 2988 4147 2022 4147 
L 1259 4147 
z
M 628 4666 
L 1925 4666 
Q 3281 4666 3915 4102 
Q 4550 3538 4550 2338 
Q 4550 1131 3912 565 
Q 3275 0 1925 0 
L 628 0 
L 628 4666 
z
" transform="scale(0.015625)"/>
      </defs>
      <use xlink:href="#DejaVuSans-41"/>
      <use xlink:href="#DejaVuSans-42" x="68.408203"/>
      <use xlink:href="#DejaVuSans-20" x="137.011719"/>
      <use xlink:href="#DejaVuSans-54" x="168.798828"/>
      <use xlink:href="#DejaVuSans-72" x="215.132812"/>
      <use xlink:href="#DejaVuSans-61" x="256.246094"/>
      <use xlink:href="#DejaVuSans-63" x="317.525391"/>
      <use xlink:href="#DejaVuSans-74" x="372.505859"/>
      <use xlink:href="#DejaVuSans-73" x="411.714844"/>
      <use xlink:href="#DejaVuSans-20" x="463.814453"/>
      <use xlink:href="#DejaVuSans-74" x="495.601562"/>
      <use xlink:href="#DejaVuSans-6f" x="534.810547"/>
      <use xlink:href="#DejaVuSans-20" x="595.992188"/>
      <use xlink:href="#DejaVuSans-43" x="627.779297"/>
      <use xlink:href="#DejaVuSans-44" x="697.603516"/>
      <use xlink:href="#DejaVuSans-20" x="774.605469"/>
      <use xlink:href="#DejaVuSans-54" x="806.392578"/>
      <use xlink:href="#DejaVuSans-72" x="852.726562"/>
      <use xlink:href="#DejaVuSans-61" x="893.839844"/>
      <use xlink:href="#DejaVuSans-63" x="955.119141"/>
      <use xlink:href="#DejaVuSans-74" x="1010.099609"/>
      <use xlink:href="#DejaVuSans-73" x="1049.308594"/>
     </g>
    </g>
   </g>
   <g id="matplotlib.axis_2">
    <g id="ytick_1">
     <g id="line2d_7">
      <defs>
       <path id="m890a04fe35" d="M 0 0 
L -3.5 0 
" style="stroke: #000000; stroke-width: 0.8"/>
      </defs>
      <g>
       <use xlink:href="#m890a04fe35" x="37.840625" y="523.645938" style="stroke: #000000; stroke-width: 0.8"/>
      </g>
     </g>
     <g id="text_8">
      <!-- 0 -->
      <g transform="translate(24.478125 527.445156) scale(0.1 -0.1)">
       <use xlink:href="#DejaVuSans-30"/>
      </g>
     </g>
    </g>
    <g id="ytick_2">
     <g id="line2d_8">
      <g>
       <use xlink:href="#m890a04fe35" x="37.840625" y="434.999636" style="stroke: #000000; stroke-width: 0.8"/>
      </g>
     </g>
     <g id="text_9">
      <!-- 1 -->
      <g transform="translate(24.478125 438.798855) scale(0.1 -0.1)">
       <use xlink:href="#DejaVuSans-31"/>
      </g>
     </g>
    </g>
    <g id="ytick_3">
     <g id="line2d_9">
      <g>
       <use xlink:href="#m890a04fe35" x="37.840625" y="346.353334" style="stroke: #000000; stroke-width: 0.8"/>
      </g>
     </g>
     <g id="text_10">
      <!-- 2 -->
      <g transform="translate(24.478125 350.152553) scale(0.1 -0.1)">
       <use xlink:href="#DejaVuSans-32"/>
      </g>
     </g>
    </g>
    <g id="ytick_4">
     <g id="line2d_10">
      <g>
       <use xlink:href="#m890a04fe35" x="37.840625" y="257.707033" style="stroke: #000000; stroke-width: 0.8"/>
      </g>
     </g>
     <g id="text_11">
      <!-- 3 -->
      <g transform="translate(24.478125 261.506252) scale(0.1 -0.1)">
       <defs>
        <path id="DejaVuSans-33" d="M 2597 2516 
Q 3050 2419 3304 2112 
Q 3559 1806 3559 1356 
Q 3559 666 3084 287 
Q 2609 -91 1734 -91 
Q 1441 -91 1130 -33 
Q 819 25 488 141 
L 488 750 
Q 750 597 1062 519 
Q 1375 441 1716 441 
Q 2309 441 2620 675 
Q 2931 909 2931 1356 
Q 2931 1769 2642 2001 
Q 2353 2234 1838 2234 
L 1294 2234 
L 1294 2753 
L 1863 2753 
Q 2328 2753 2575 2939 
Q 2822 3125 2822 3475 
Q 2822 3834 2567 4026 
Q 2313 4219 1838 4219 
Q 1578 4219 1281 4162 
Q 984 4106 628 3988 
L 628 4550 
Q 988 4650 1302 4700 
Q 1616 4750 1894 4750 
Q 2613 4750 3031 4423 
Q 3450 4097 3450 3541 
Q 3450 3153 3228 2886 
Q 3006 2619 2597 2516 
z
" transform="scale(0.015625)"/>
       </defs>
       <use xlink:href="#DejaVuSans-33"/>
      </g>
     </g>
    </g>
    <g id="ytick_5">
     <g id="line2d_11">
      <g>
       <use xlink:href="#m890a04fe35" x="37.840625" y="169.060731" style="stroke: #000000; stroke-width: 0.8"/>
      </g>
     </g>
     <g id="text_12">
      <!-- 4 -->
      <g transform="translate(24.478125 172.85995) scale(0.1 -0.1)">
       <use xlink:href="#DejaVuSans-34"/>
      </g>
     </g>
    </g>
    <g id="ytick_6">
     <g id="line2d_12">
      <g>
       <use xlink:href="#m890a04fe35" x="37.840625" y="80.41443" style="stroke: #000000; stroke-width: 0.8"/>
      </g>
     </g>
     <g id="text_13">
      <!-- 5 -->
      <g transform="translate(24.478125 84.213649) scale(0.1 -0.1)">
       <defs>
        <path id="DejaVuSans-35" d="M 691 4666 
L 3169 4666 
L 3169 4134 
L 1269 4134 
L 1269 2991 
Q 1406 3038 1543 3061 
Q 1681 3084 1819 3084 
Q 2600 3084 3056 2656 
Q 3513 2228 3513 1497 
Q 3513 744 3044 326 
Q 2575 -91 1722 -91 
Q 1428 -91 1123 -41 
Q 819 9 494 109 
L 494 744 
Q 775 591 1075 516 
Q 1375 441 1709 441 
Q 2250 441 2565 725 
Q 2881 1009 2881 1497 
Q 2881 1984 2565 2268 
Q 2250 2553 1709 2553 
Q 1456 2553 1204 2497 
Q 953 2441 691 2322 
L 691 4666 
z
" transform="scale(0.015625)"/>
       </defs>
       <use xlink:href="#DejaVuSans-35"/>
      </g>
     </g>
    </g>
    <g id="text_14">
     <!-- Density -->
     <g transform="translate(18.398438 293.790625) rotate(-90) scale(0.1 -0.1)">
      <use xlink:href="#DejaVuSans-44"/>
      <use xlink:href="#DejaVuSans-65" x="77.001953"/>
      <use xlink:href="#DejaVuSans-6e" x="138.525391"/>
      <use xlink:href="#DejaVuSans-73" x="201.904297"/>
      <use xlink:href="#DejaVuSans-69" x="254.003906"/>
      <use xlink:href="#DejaVuSans-74" x="281.787109"/>
      <use xlink:href="#DejaVuSans-79" x="320.996094"/>
     </g>
    </g>
   </g>
   <g id="patch_3">
    <path d="M 37.840625 523.645938 
L 37.840625 25.918125 
" style="fill: none; stroke: #000000; stroke-width: 0.8; stroke-linejoin: miter; stroke-linecap: square"/>
   </g>
   <g id="patch_4">
    <path d="M 270.088021 523.645938 
L 270.088021 25.918125 
" style="fill: none; stroke: #000000; stroke-width: 0.8; stroke-linejoin: miter; stroke-linecap: square"/>
   </g>
   <g id="patch_5">
    <path d="M 37.840625 523.645938 
L 270.088021 523.645938 
" style="fill: none; stroke: #000000; stroke-width: 0.8; stroke-linejoin: miter; stroke-linecap: square"/>
   </g>
   <g id="patch_6">
    <path d="M 37.840625 25.918125 
L 270.088021 25.918125 
" style="fill: none; stroke: #000000; stroke-width: 0.8; stroke-linejoin: miter; stroke-linecap: square"/>
   </g>
   <g id="text_15">
    <!-- AB Graded vs CD Graded -->
    <g transform="translate(78.424323 19.918125) scale(0.12 -0.12)">
     <defs>
      <path id="DejaVuSans-47" d="M 3809 666 
L 3809 1919 
L 2778 1919 
L 2778 2438 
L 4434 2438 
L 4434 434 
Q 4069 175 3628 42 
Q 3188 -91 2688 -91 
Q 1594 -91 976 548 
Q 359 1188 359 2328 
Q 359 3472 976 4111 
Q 1594 4750 2688 4750 
Q 3144 4750 3555 4637 
Q 3966 4525 4313 4306 
L 4313 3634 
Q 3963 3931 3569 4081 
Q 3175 4231 2741 4231 
Q 1884 4231 1454 3753 
Q 1025 3275 1025 2328 
Q 1025 1384 1454 906 
Q 1884 428 2741 428 
Q 3075 428 3337 486 
Q 3600 544 3809 666 
z
" transform="scale(0.015625)"/>
      <path id="DejaVuSans-64" d="M 2906 2969 
L 2906 4863 
L 3481 4863 
L 3481 0 
L 2906 0 
L 2906 525 
Q 2725 213 2448 61 
Q 2172 -91 1784 -91 
Q 1150 -91 751 415 
Q 353 922 353 1747 
Q 353 2572 751 3078 
Q 1150 3584 1784 3584 
Q 2172 3584 2448 3432 
Q 2725 3281 2906 2969 
z
M 947 1747 
Q 947 1113 1208 752 
Q 1469 391 1925 391 
Q 2381 391 2643 752 
Q 2906 1113 2906 1747 
Q 2906 2381 2643 2742 
Q 2381 3103 1925 3103 
Q 1469 3103 1208 2742 
Q 947 2381 947 1747 
z
" transform="scale(0.015625)"/>
      <path id="DejaVuSans-76" d="M 191 3500 
L 800 3500 
L 1894 563 
L 2988 3500 
L 3597 3500 
L 2284 0 
L 1503 0 
L 191 3500 
z
" transform="scale(0.015625)"/>
     </defs>
     <use xlink:href="#DejaVuSans-41"/>
     <use xlink:href="#DejaVuSans-42" x="68.408203"/>
     <use xlink:href="#DejaVuSans-20" x="137.011719"/>
     <use xlink:href="#DejaVuSans-47" x="168.798828"/>
     <use xlink:href="#DejaVuSans-72" x="246.289062"/>
     <use xlink:href="#DejaVuSans-61" x="287.402344"/>
     <use xlink:href="#DejaVuSans-64" x="348.681641"/>
     <use xlink:href="#DejaVuSans-65" x="412.158203"/>
     <use xlink:href="#DejaVuSans-64" x="473.681641"/>
     <use xlink:href="#DejaVuSans-20" x="537.158203"/>
     <use xlink:href="#DejaVuSans-76" x="568.945312"/>
     <use xlink:href="#DejaVuSans-73" x="628.125"/>
     <use xlink:href="#DejaVuSans-20" x="680.224609"/>
     <use xlink:href="#DejaVuSans-43" x="712.011719"/>
     <use xlink:href="#DejaVuSans-44" x="781.835938"/>
     <use xlink:href="#DejaVuSans-20" x="858.837891"/>
     <use xlink:href="#DejaVuSans-47" x="890.625"/>
     <use xlink:href="#DejaVuSans-72" x="968.115234"/>
     <use xlink:href="#DejaVuSans-61" x="1009.228516"/>
     <use xlink:href="#DejaVuSans-64" x="1070.507812"/>
     <use xlink:href="#DejaVuSans-65" x="1133.984375"/>
     <use xlink:href="#DejaVuSans-64" x="1195.507812"/>
    </g>
   </g>
  </g>
  <g id="axes_2">
   <g id="patch_7">
    <path d="M 325.420833 523.645938 
L 557.668229 523.645938 
L 557.668229 25.918125 
L 325.420833 25.918125 
z
" style="fill: #ffffff"/>
   </g>
   <g id="PolyCollection_2">
    <defs>
     <path id="m4601393ae5" d="M 365.517631 -52.411839 
L 365.517631 -52.354062 
L 366.647833 -52.354062 
L 367.778036 -52.354062 
L 368.908239 -52.354062 
L 370.038441 -52.354062 
L 371.168644 -52.354062 
L 372.298846 -52.354062 
L 373.429049 -52.354062 
L 374.559251 -52.354062 
L 375.689454 -52.354062 
L 376.819657 -52.354062 
L 377.949859 -52.354062 
L 379.080062 -52.354062 
L 380.210264 -52.354062 
L 381.340467 -52.354062 
L 382.470669 -52.354062 
L 383.600872 -52.354062 
L 384.731075 -52.354062 
L 385.861277 -52.354062 
L 386.99148 -52.354062 
L 388.121682 -52.354062 
L 389.251885 -52.354062 
L 390.382087 -52.354062 
L 391.51229 -52.354062 
L 392.642493 -52.354062 
L 393.772695 -52.354062 
L 394.902898 -52.354062 
L 396.0331 -52.354062 
L 397.163303 -52.354062 
L 398.293505 -52.354062 
L 399.423708 -52.354062 
L 400.553911 -52.354062 
L 401.684113 -52.354062 
L 402.814316 -52.354062 
L 403.944518 -52.354062 
L 405.074721 -52.354062 
L 406.204923 -52.354062 
L 407.335126 -52.354062 
L 408.465328 -52.354062 
L 409.595531 -52.354062 
L 410.725734 -52.354062 
L 411.855936 -52.354062 
L 412.986139 -52.354062 
L 414.116341 -52.354062 
L 415.246544 -52.354062 
L 416.376746 -52.354062 
L 417.506949 -52.354062 
L 418.637152 -52.354062 
L 419.767354 -52.354062 
L 420.897557 -52.354062 
L 422.027759 -52.354062 
L 423.157962 -52.354062 
L 424.288164 -52.354062 
L 425.418367 -52.354062 
L 426.54857 -52.354062 
L 427.678772 -52.354062 
L 428.808975 -52.354062 
L 429.939177 -52.354062 
L 431.06938 -52.354062 
L 432.199582 -52.354062 
L 433.329785 -52.354062 
L 434.459988 -52.354062 
L 435.59019 -52.354062 
L 436.720393 -52.354062 
L 437.850595 -52.354062 
L 438.980798 -52.354062 
L 440.111 -52.354062 
L 441.241203 -52.354062 
L 442.371406 -52.354062 
L 443.501608 -52.354062 
L 444.631811 -52.354062 
L 445.762013 -52.354062 
L 446.892216 -52.354062 
L 448.022418 -52.354062 
L 449.152621 -52.354062 
L 450.282824 -52.354062 
L 451.413026 -52.354062 
L 452.543229 -52.354062 
L 453.673431 -52.354062 
L 454.803634 -52.354062 
L 455.933836 -52.354062 
L 457.064039 -52.354062 
L 458.194242 -52.354062 
L 459.324444 -52.354062 
L 460.454647 -52.354062 
L 461.584849 -52.354062 
L 462.715052 -52.354062 
L 463.845254 -52.354062 
L 464.975457 -52.354062 
L 466.10566 -52.354062 
L 467.235862 -52.354062 
L 468.366065 -52.354062 
L 469.496267 -52.354062 
L 470.62647 -52.354062 
L 471.756672 -52.354062 
L 472.886875 -52.354062 
L 474.017078 -52.354062 
L 475.14728 -52.354062 
L 476.277483 -52.354062 
L 477.407685 -52.354062 
L 478.537888 -52.354062 
L 479.66809 -52.354062 
L 480.798293 -52.354062 
L 481.928496 -52.354062 
L 483.058698 -52.354062 
L 484.188901 -52.354062 
L 485.319103 -52.354062 
L 486.449306 -52.354062 
L 487.579508 -52.354062 
L 488.709711 -52.354062 
L 489.839914 -52.354062 
L 490.970116 -52.354062 
L 492.100319 -52.354062 
L 493.230521 -52.354062 
L 494.360724 -52.354062 
L 495.490926 -52.354062 
L 496.621129 -52.354062 
L 497.751332 -52.354062 
L 498.881534 -52.354062 
L 500.011737 -52.354062 
L 501.141939 -52.354062 
L 502.272142 -52.354062 
L 503.402344 -52.354062 
L 504.532547 -52.354062 
L 505.66275 -52.354062 
L 506.792952 -52.354062 
L 507.923155 -52.354062 
L 509.053357 -52.354062 
L 510.18356 -52.354062 
L 511.313762 -52.354062 
L 512.443965 -52.354062 
L 513.574167 -52.354062 
L 514.70437 -52.354062 
L 515.834573 -52.354062 
L 516.964775 -52.354062 
L 518.094978 -52.354062 
L 519.22518 -52.354062 
L 520.355383 -52.354062 
L 521.485585 -52.354062 
L 522.615788 -52.354062 
L 523.745991 -52.354062 
L 524.876193 -52.354062 
L 526.006396 -52.354062 
L 527.136598 -52.354062 
L 528.266801 -52.354062 
L 529.397003 -52.354062 
L 530.527206 -52.354062 
L 531.657409 -52.354062 
L 532.787611 -52.354062 
L 533.917814 -52.354062 
L 535.048016 -52.354062 
L 536.178219 -52.354062 
L 537.308421 -52.354062 
L 538.438624 -52.354062 
L 539.568827 -52.354062 
L 540.699029 -52.354062 
L 541.829232 -52.354062 
L 542.959434 -52.354062 
L 544.089637 -52.354062 
L 545.219839 -52.354062 
L 546.350042 -52.354062 
L 547.480245 -52.354062 
L 548.610447 -52.354062 
L 549.74065 -52.354062 
L 550.870852 -52.354062 
L 552.001055 -52.354062 
L 553.131257 -52.354062 
L 554.26146 -52.354062 
L 555.391663 -52.354062 
L 556.521865 -52.354062 
L 557.652068 -52.354062 
L 558.78227 -52.354062 
L 559.912473 -52.354062 
L 561.042675 -52.354062 
L 562.172878 -52.354062 
L 563.303081 -52.354062 
L 564.433283 -52.354062 
L 565.563486 -52.354062 
L 566.693688 -52.354062 
L 567.823891 -52.354062 
L 568.954093 -52.354062 
L 570.084296 -52.354062 
L 571.214499 -52.354062 
L 572.344701 -52.354062 
L 573.474904 -52.354062 
L 574.605106 -52.354062 
L 575.735309 -52.354062 
L 576.865511 -52.354062 
L 577.995714 -52.354062 
L 579.125917 -52.354062 
L 580.256119 -52.354062 
L 581.386322 -52.354062 
L 582.516524 -52.354062 
L 583.646727 -52.354062 
L 584.776929 -52.354062 
L 585.907132 -52.354062 
L 587.037335 -52.354062 
L 588.167537 -52.354062 
L 589.29774 -52.354062 
L 590.427942 -52.354062 
L 590.427942 -52.838491 
L 590.427942 -52.838491 
L 589.29774 -53.028225 
L 588.167537 -53.283785 
L 587.037335 -53.624662 
L 585.907132 -54.074914 
L 584.776929 -54.663844 
L 583.646727 -55.426658 
L 582.516524 -56.405057 
L 581.386322 -57.647708 
L 580.256119 -59.210541 
L 579.125917 -61.156788 
L 577.995714 -63.556704 
L 576.865511 -66.486891 
L 575.735309 -70.029174 
L 574.605106 -74.268959 
L 573.474904 -79.293066 
L 572.344701 -85.18702 
L 571.214499 -92.031842 
L 570.084296 -99.900395 
L 568.954093 -108.853417 
L 567.823891 -118.935374 
L 566.693688 -130.170326 
L 565.563486 -142.558023 
L 564.433283 -156.070468 
L 563.303081 -170.649181 
L 562.172878 -186.203408 
L 561.042675 -202.609463 
L 559.912473 -219.711382 
L 558.78227 -237.322971 
L 557.652068 -255.231293 
L 556.521865 -273.201538 
L 555.391663 -290.983144 
L 554.26146 -308.316945 
L 553.131257 -324.943081 
L 552.001055 -340.609297 
L 550.870852 -355.079272 
L 549.74065 -368.140549 
L 548.610447 -379.611695 
L 547.480245 -389.348311 
L 546.350042 -397.247588 
L 545.219839 -403.251177 
L 544.089637 -407.346239 
L 542.959434 -409.564618 
L 541.829232 -409.980217 
L 540.699029 -408.70474 
L 539.568827 -405.882036 
L 538.438624 -401.681403 
L 537.308421 -396.290199 
L 536.178219 -389.906189 
L 535.048016 -382.730026 
L 533.917814 -374.95825 
L 532.787611 -366.777133 
L 531.657409 -358.357649 
L 530.527206 -349.851729 
L 529.397003 -341.389909 
L 528.266801 -333.080352 
L 527.136598 -325.009163 
L 526.006396 -317.241807 
L 524.876193 -309.825422 
L 523.745991 -302.791736 
L 522.615788 -296.160314 
L 521.485585 -289.941839 
L 520.355383 -284.141194 
L 519.22518 -278.760114 
L 518.094978 -273.799274 
L 516.964775 -269.259727 
L 515.834573 -265.143663 
L 514.70437 -261.454563 
L 513.574167 -258.196817 
L 512.443965 -255.37497 
L 511.313762 -252.992734 
L 510.18356 -251.051954 
L 509.053357 -249.551657 
L 507.923155 -248.487332 
L 506.792952 -247.850512 
L 505.66275 -247.628723 
L 504.532547 -247.805791 
L 503.402344 -248.362472 
L 502.272142 -249.277349 
L 501.141939 -250.52789 
L 500.011737 -252.091569 
L 498.881534 -253.946959 
L 497.751332 -256.074687 
L 496.621129 -258.458206 
L 495.490926 -261.084312 
L 494.360724 -263.943417 
L 493.230521 -267.029554 
L 492.100319 -270.340169 
L 490.970116 -273.875734 
L 489.839914 -277.639233 
L 488.709711 -281.635585 
L 487.579508 -285.871054 
L 486.449306 -290.352673 
L 485.319103 -295.087747 
L 484.188901 -300.083404 
L 483.058698 -305.346245 
L 481.928496 -310.882041 
L 480.798293 -316.69549 
L 479.66809 -322.790005 
L 478.537888 -329.167505 
L 477.407685 -335.828191 
L 476.277483 -342.770306 
L 475.14728 -349.989849 
L 474.017078 -357.480255 
L 472.886875 -365.232041 
L 471.756672 -373.23242 
L 470.62647 -381.464903 
L 469.496267 -389.908888 
L 468.366065 -398.539267 
L 467.235862 -407.326044 
L 466.10566 -416.233993 
L 464.975457 -425.222355 
L 463.845254 -434.244601 
L 462.715052 -443.248267 
L 461.584849 -452.17489 
L 460.454647 -460.960053 
L 459.324444 -469.533595 
L 458.194242 -477.819981 
L 457.064039 -485.738904 
L 455.933836 -493.206106 
L 454.803634 -500.134483 
L 453.673431 -506.435455 
L 452.543229 -512.020611 
L 451.413026 -516.803609 
L 450.282824 -520.702279 
L 449.152621 -523.640868 
L 448.022418 -525.552327 
L 446.892216 -526.380551 
L 445.762013 -526.082428 
L 444.631811 -524.629603 
L 443.501608 -522.00982 
L 442.371406 -518.227738 
L 441.241203 -513.305174 
L 440.111 -507.280691 
L 438.980798 -500.208551 
L 437.850595 -492.157068 
L 436.720393 -483.206412 
L 435.59019 -473.446004 
L 434.459988 -462.971611 
L 433.329785 -451.882309 
L 432.199582 -440.277464 
L 431.06938 -428.253899 
L 429.939177 -415.903369 
L 428.808975 -403.310468 
L 427.678772 -390.551056 
L 426.54857 -377.691242 
L 425.418367 -364.786945 
L 424.288164 -351.884013 
L 423.157962 -339.018837 
L 422.027759 -326.219398 
L 420.897557 -313.506642 
L 419.767354 -300.896079 
L 418.637152 -288.399504 
L 417.506949 -276.026718 
L 416.376746 -263.78717 
L 415.246544 -251.691411 
L 414.116341 -239.752297 
L 412.986139 -227.9859 
L 411.855936 -216.412064 
L 410.725734 -205.054617 
L 409.595531 -193.941226 
L 408.465328 -183.102932 
L 407.335126 -172.573388 
L 406.204923 -162.38787 
L 405.074721 -152.582111 
L 403.944518 -143.191047 
L 402.814316 -134.247525 
L 401.684113 -125.781079 
L 400.553911 -117.816807 
L 399.423708 -110.37444 
L 398.293505 -103.467621 
L 397.163303 -97.10345 
L 396.0331 -91.28229 
L 394.902898 -85.997838 
L 393.772695 -81.237455 
L 392.642493 -76.982705 
L 391.51229 -73.210083 
L 390.382087 -69.891868 
L 389.251885 -66.997061 
L 388.121682 -64.492359 
L 386.99148 -62.343104 
L 385.861277 -60.514191 
L 384.731075 -58.970877 
L 383.600872 -57.679485 
L 382.470669 -56.607983 
L 381.340467 -55.726421 
L 380.210264 -55.007252 
L 379.080062 -54.425517 
L 377.949859 -53.958931 
L 376.819657 -53.587864 
L 375.689454 -53.295256 
L 374.559251 -53.066469 
L 373.429049 -52.889093 
L 372.298846 -52.752738 
L 371.168644 -52.648801 
L 370.038441 -52.570245 
L 368.908239 -52.511372 
L 367.778036 -52.467624 
L 366.647833 -52.43539 
L 365.517631 -52.411839 
z
" style="stroke: #bfbf00"/>
    </defs>
    <g clip-path="url(#p1927551b6e)">
     <use xlink:href="#m4601393ae5" x="0" y="576" style="fill: #bfbf00; fill-opacity: 0.25; stroke: #bfbf00"/>
    </g>
   </g>
   <g id="matplotlib.axis_3">
    <g id="xtick_7">
     <g id="line2d_13">
      <g>
       <use xlink:href="#mf3953d0e99" x="325.420833" y="523.645938" style="stroke: #000000; stroke-width: 0.8"/>
      </g>
     </g>
     <g id="text_16">
      <!-- 0.0 -->
      <g transform="translate(317.469271 538.244375) scale(0.1 -0.1)">
       <use xlink:href="#DejaVuSans-30"/>
       <use xlink:href="#DejaVuSans-2e" x="63.623047"/>
       <use xlink:href="#DejaVuSans-30" x="95.410156"/>
      </g>
     </g>
    </g>
    <g id="xtick_8">
     <g id="line2d_14">
      <g>
       <use xlink:href="#mf3953d0e99" x="371.870313" y="523.645938" style="stroke: #000000; stroke-width: 0.8"/>
      </g>
     </g>
     <g id="text_17">
      <!-- 0.2 -->
      <g transform="translate(363.91875 538.244375) scale(0.1 -0.1)">
       <use xlink:href="#DejaVuSans-30"/>
       <use xlink:href="#DejaVuSans-2e" x="63.623047"/>
       <use xlink:href="#DejaVuSans-32" x="95.410156"/>
      </g>
     </g>
    </g>
    <g id="xtick_9">
     <g id="line2d_15">
      <g>
       <use xlink:href="#mf3953d0e99" x="418.319792" y="523.645938" style="stroke: #000000; stroke-width: 0.8"/>
      </g>
     </g>
     <g id="text_18">
      <!-- 0.4 -->
      <g transform="translate(410.368229 538.244375) scale(0.1 -0.1)">
       <use xlink:href="#DejaVuSans-30"/>
       <use xlink:href="#DejaVuSans-2e" x="63.623047"/>
       <use xlink:href="#DejaVuSans-34" x="95.410156"/>
      </g>
     </g>
    </g>
    <g id="xtick_10">
     <g id="line2d_16">
      <g>
       <use xlink:href="#mf3953d0e99" x="464.769271" y="523.645938" style="stroke: #000000; stroke-width: 0.8"/>
      </g>
     </g>
     <g id="text_19">
      <!-- 0.6 -->
      <g transform="translate(456.817708 538.244375) scale(0.1 -0.1)">
       <use xlink:href="#DejaVuSans-30"/>
       <use xlink:href="#DejaVuSans-2e" x="63.623047"/>
       <use xlink:href="#DejaVuSans-36" x="95.410156"/>
      </g>
     </g>
    </g>
    <g id="xtick_11">
     <g id="line2d_17">
      <g>
       <use xlink:href="#mf3953d0e99" x="511.21875" y="523.645938" style="stroke: #000000; stroke-width: 0.8"/>
      </g>
     </g>
     <g id="text_20">
      <!-- 0.8 -->
      <g transform="translate(503.267188 538.244375) scale(0.1 -0.1)">
       <use xlink:href="#DejaVuSans-30"/>
       <use xlink:href="#DejaVuSans-2e" x="63.623047"/>
       <use xlink:href="#DejaVuSans-38" x="95.410156"/>
      </g>
     </g>
    </g>
    <g id="xtick_12">
     <g id="line2d_18">
      <g>
       <use xlink:href="#mf3953d0e99" x="557.668229" y="523.645938" style="stroke: #000000; stroke-width: 0.8"/>
      </g>
     </g>
     <g id="text_21">
      <!-- 1.0 -->
      <g transform="translate(549.716667 538.244375) scale(0.1 -0.1)">
       <use xlink:href="#DejaVuSans-31"/>
       <use xlink:href="#DejaVuSans-2e" x="63.623047"/>
       <use xlink:href="#DejaVuSans-30" x="95.410156"/>
      </g>
     </g>
    </g>
    <g id="text_22">
     <!-- Cosine Similarity of  -->
     <g transform="translate(391.528125 551.9225) scale(0.1 -0.1)">
      <use xlink:href="#DejaVuSans-43"/>
      <use xlink:href="#DejaVuSans-6f" x="69.824219"/>
      <use xlink:href="#DejaVuSans-73" x="131.005859"/>
      <use xlink:href="#DejaVuSans-69" x="183.105469"/>
      <use xlink:href="#DejaVuSans-6e" x="210.888672"/>
      <use xlink:href="#DejaVuSans-65" x="274.267578"/>
      <use xlink:href="#DejaVuSans-20" x="335.791016"/>
      <use xlink:href="#DejaVuSans-53" x="367.578125"/>
      <use xlink:href="#DejaVuSans-69" x="431.054688"/>
      <use xlink:href="#DejaVuSans-6d" x="458.837891"/>
      <use xlink:href="#DejaVuSans-69" x="556.25"/>
      <use xlink:href="#DejaVuSans-6c" x="584.033203"/>
      <use xlink:href="#DejaVuSans-61" x="611.816406"/>
      <use xlink:href="#DejaVuSans-72" x="673.095703"/>
      <use xlink:href="#DejaVuSans-69" x="714.208984"/>
      <use xlink:href="#DejaVuSans-74" x="741.992188"/>
      <use xlink:href="#DejaVuSans-79" x="781.201172"/>
      <use xlink:href="#DejaVuSans-20" x="840.380859"/>
      <use xlink:href="#DejaVuSans-6f" x="872.167969"/>
      <use xlink:href="#DejaVuSans-66" x="933.349609"/>
      <use xlink:href="#DejaVuSans-20" x="968.554688"/>
     </g>
     <!-- AB Non-Black Tracts to CD Black Tracts -->
     <g transform="translate(344.650781 563.120313) scale(0.1 -0.1)">
      <defs>
       <path id="DejaVuSans-4e" d="M 628 4666 
L 1478 4666 
L 3547 763 
L 3547 4666 
L 4159 4666 
L 4159 0 
L 3309 0 
L 1241 3903 
L 1241 0 
L 628 0 
L 628 4666 
z
" transform="scale(0.015625)"/>
       <path id="DejaVuSans-2d" d="M 313 2009 
L 1997 2009 
L 1997 1497 
L 313 1497 
L 313 2009 
z
" transform="scale(0.015625)"/>
       <path id="DejaVuSans-6b" d="M 581 4863 
L 1159 4863 
L 1159 1991 
L 2875 3500 
L 3609 3500 
L 1753 1863 
L 3688 0 
L 2938 0 
L 1159 1709 
L 1159 0 
L 581 0 
L 581 4863 
z
" transform="scale(0.015625)"/>
      </defs>
      <use xlink:href="#DejaVuSans-41"/>
      <use xlink:href="#DejaVuSans-42" x="68.408203"/>
      <use xlink:href="#DejaVuSans-20" x="137.011719"/>
      <use xlink:href="#DejaVuSans-4e" x="168.798828"/>
      <use xlink:href="#DejaVuSans-6f" x="243.603516"/>
      <use xlink:href="#DejaVuSans-6e" x="304.785156"/>
      <use xlink:href="#DejaVuSans-2d" x="368.164062"/>
      <use xlink:href="#DejaVuSans-42" x="400.623047"/>
      <use xlink:href="#DejaVuSans-6c" x="469.226562"/>
      <use xlink:href="#DejaVuSans-61" x="497.009766"/>
      <use xlink:href="#DejaVuSans-63" x="558.289062"/>
      <use xlink:href="#DejaVuSans-6b" x="613.269531"/>
      <use xlink:href="#DejaVuSans-20" x="671.179688"/>
      <use xlink:href="#DejaVuSans-54" x="702.966797"/>
      <use xlink:href="#DejaVuSans-72" x="749.300781"/>
      <use xlink:href="#DejaVuSans-61" x="790.414062"/>
      <use xlink:href="#DejaVuSans-63" x="851.693359"/>
      <use xlink:href="#DejaVuSans-74" x="906.673828"/>
      <use xlink:href="#DejaVuSans-73" x="945.882812"/>
      <use xlink:href="#DejaVuSans-20" x="997.982422"/>
      <use xlink:href="#DejaVuSans-74" x="1029.769531"/>
      <use xlink:href="#DejaVuSans-6f" x="1068.978516"/>
      <use xlink:href="#DejaVuSans-20" x="1130.160156"/>
      <use xlink:href="#DejaVuSans-43" x="1161.947266"/>
      <use xlink:href="#DejaVuSans-44" x="1231.771484"/>
      <use xlink:href="#DejaVuSans-20" x="1308.773438"/>
      <use xlink:href="#DejaVuSans-42" x="1340.560547"/>
      <use xlink:href="#DejaVuSans-6c" x="1409.164062"/>
      <use xlink:href="#DejaVuSans-61" x="1436.947266"/>
      <use xlink:href="#DejaVuSans-63" x="1498.226562"/>
      <use xlink:href="#DejaVuSans-6b" x="1553.207031"/>
      <use xlink:href="#DejaVuSans-20" x="1611.117188"/>
      <use xlink:href="#DejaVuSans-54" x="1642.904297"/>
      <use xlink:href="#DejaVuSans-72" x="1689.238281"/>
      <use xlink:href="#DejaVuSans-61" x="1730.351562"/>
      <use xlink:href="#DejaVuSans-63" x="1791.630859"/>
      <use xlink:href="#DejaVuSans-74" x="1846.611328"/>
      <use xlink:href="#DejaVuSans-73" x="1885.820312"/>
     </g>
    </g>
   </g>
   <g id="matplotlib.axis_4">
    <g id="ytick_7">
     <g id="line2d_19">
      <g>
       <use xlink:href="#m890a04fe35" x="325.420833" y="523.645938" style="stroke: #000000; stroke-width: 0.8"/>
      </g>
     </g>
     <g id="text_23">
      <!-- 0.0 -->
      <g transform="translate(302.517708 527.445156) scale(0.1 -0.1)">
       <use xlink:href="#DejaVuSans-30"/>
       <use xlink:href="#DejaVuSans-2e" x="63.623047"/>
       <use xlink:href="#DejaVuSans-30" x="95.410156"/>
      </g>
     </g>
    </g>
    <g id="ytick_8">
     <g id="line2d_20">
      <g>
       <use xlink:href="#m890a04fe35" x="325.420833" y="419.962237" style="stroke: #000000; stroke-width: 0.8"/>
      </g>
     </g>
     <g id="text_24">
      <!-- 0.5 -->
      <g transform="translate(302.517708 423.761456) scale(0.1 -0.1)">
       <use xlink:href="#DejaVuSans-30"/>
       <use xlink:href="#DejaVuSans-2e" x="63.623047"/>
       <use xlink:href="#DejaVuSans-35" x="95.410156"/>
      </g>
     </g>
    </g>
    <g id="ytick_9">
     <g id="line2d_21">
      <g>
       <use xlink:href="#m890a04fe35" x="325.420833" y="316.278536" style="stroke: #000000; stroke-width: 0.8"/>
      </g>
     </g>
     <g id="text_25">
      <!-- 1.0 -->
      <g transform="translate(302.517708 320.077755) scale(0.1 -0.1)">
       <use xlink:href="#DejaVuSans-31"/>
       <use xlink:href="#DejaVuSans-2e" x="63.623047"/>
       <use xlink:href="#DejaVuSans-30" x="95.410156"/>
      </g>
     </g>
    </g>
    <g id="ytick_10">
     <g id="line2d_22">
      <g>
       <use xlink:href="#m890a04fe35" x="325.420833" y="212.594836" style="stroke: #000000; stroke-width: 0.8"/>
      </g>
     </g>
     <g id="text_26">
      <!-- 1.5 -->
      <g transform="translate(302.517708 216.394055) scale(0.1 -0.1)">
       <use xlink:href="#DejaVuSans-31"/>
       <use xlink:href="#DejaVuSans-2e" x="63.623047"/>
       <use xlink:href="#DejaVuSans-35" x="95.410156"/>
      </g>
     </g>
    </g>
    <g id="ytick_11">
     <g id="line2d_23">
      <g>
       <use xlink:href="#m890a04fe35" x="325.420833" y="108.911135" style="stroke: #000000; stroke-width: 0.8"/>
      </g>
     </g>
     <g id="text_27">
      <!-- 2.0 -->
      <g transform="translate(302.517708 112.710354) scale(0.1 -0.1)">
       <use xlink:href="#DejaVuSans-32"/>
       <use xlink:href="#DejaVuSans-2e" x="63.623047"/>
       <use xlink:href="#DejaVuSans-30" x="95.410156"/>
      </g>
     </g>
    </g>
    <g id="text_28">
     <!-- Density -->
     <g transform="translate(296.438021 293.790625) rotate(-90) scale(0.1 -0.1)">
      <use xlink:href="#DejaVuSans-44"/>
      <use xlink:href="#DejaVuSans-65" x="77.001953"/>
      <use xlink:href="#DejaVuSans-6e" x="138.525391"/>
      <use xlink:href="#DejaVuSans-73" x="201.904297"/>
      <use xlink:href="#DejaVuSans-69" x="254.003906"/>
      <use xlink:href="#DejaVuSans-74" x="281.787109"/>
      <use xlink:href="#DejaVuSans-79" x="320.996094"/>
     </g>
    </g>
   </g>
   <g id="patch_8">
    <path d="M 325.420833 523.645938 
L 325.420833 25.918125 
" style="fill: none; stroke: #000000; stroke-width: 0.8; stroke-linejoin: miter; stroke-linecap: square"/>
   </g>
   <g id="patch_9">
    <path d="M 557.668229 523.645938 
L 557.668229 25.918125 
" style="fill: none; stroke: #000000; stroke-width: 0.8; stroke-linejoin: miter; stroke-linecap: square"/>
   </g>
   <g id="patch_10">
    <path d="M 325.420833 523.645938 
L 557.668229 523.645938 
" style="fill: none; stroke: #000000; stroke-width: 0.8; stroke-linejoin: miter; stroke-linecap: square"/>
   </g>
   <g id="patch_11">
    <path d="M 325.420833 25.918125 
L 557.668229 25.918125 
" style="fill: none; stroke: #000000; stroke-width: 0.8; stroke-linejoin: miter; stroke-linecap: square"/>
   </g>
   <g id="text_29">
    <!-- CD Graded Non-Black vs CD Graded Black -->
    <g transform="translate(315.224844 19.918125) scale(0.12 -0.12)">
     <use xlink:href="#DejaVuSans-43"/>
     <use xlink:href="#DejaVuSans-44" x="69.824219"/>
     <use xlink:href="#DejaVuSans-20" x="146.826172"/>
     <use xlink:href="#DejaVuSans-47" x="178.613281"/>
     <use xlink:href="#DejaVuSans-72" x="256.103516"/>
     <use xlink:href="#DejaVuSans-61" x="297.216797"/>
     <use xlink:href="#DejaVuSans-64" x="358.496094"/>
     <use xlink:href="#DejaVuSans-65" x="421.972656"/>
     <use xlink:href="#DejaVuSans-64" x="483.496094"/>
     <use xlink:href="#DejaVuSans-20" x="546.972656"/>
     <use xlink:href="#DejaVuSans-4e" x="578.759766"/>
     <use xlink:href="#DejaVuSans-6f" x="653.564453"/>
     <use xlink:href="#DejaVuSans-6e" x="714.746094"/>
     <use xlink:href="#DejaVuSans-2d" x="778.125"/>
     <use xlink:href="#DejaVuSans-42" x="810.583984"/>
     <use xlink:href="#DejaVuSans-6c" x="879.1875"/>
     <use xlink:href="#DejaVuSans-61" x="906.970703"/>
     <use xlink:href="#DejaVuSans-63" x="968.25"/>
     <use xlink:href="#DejaVuSans-6b" x="1023.230469"/>
     <use xlink:href="#DejaVuSans-20" x="1081.140625"/>
     <use xlink:href="#DejaVuSans-76" x="1112.927734"/>
     <use xlink:href="#DejaVuSans-73" x="1172.107422"/>
     <use xlink:href="#DejaVuSans-20" x="1224.207031"/>
     <use xlink:href="#DejaVuSans-43" x="1255.994141"/>
     <use xlink:href="#DejaVuSans-44" x="1325.818359"/>
     <use xlink:href="#DejaVuSans-20" x="1402.820312"/>
     <use xlink:href="#DejaVuSans-47" x="1434.607422"/>
     <use xlink:href="#DejaVuSans-72" x="1512.097656"/>
     <use xlink:href="#DejaVuSans-61" x="1553.210938"/>
     <use xlink:href="#DejaVuSans-64" x="1614.490234"/>
     <use xlink:href="#DejaVuSans-65" x="1677.966797"/>
     <use xlink:href="#DejaVuSans-64" x="1739.490234"/>
     <use xlink:href="#DejaVuSans-20" x="1802.966797"/>
     <use xlink:href="#DejaVuSans-42" x="1834.753906"/>
     <use xlink:href="#DejaVuSans-6c" x="1903.357422"/>
     <use xlink:href="#DejaVuSans-61" x="1931.140625"/>
     <use xlink:href="#DejaVuSans-63" x="1992.419922"/>
     <use xlink:href="#DejaVuSans-6b" x="2047.400391"/>
    </g>
   </g>
  </g>
  <g id="axes_3">
   <g id="patch_12">
    <path d="M 613.001042 523.645938 
L 845.248438 523.645938 
L 845.248438 25.918125 
L 613.001042 25.918125 
z
" style="fill: #ffffff"/>
   </g>
   <g id="PolyCollection_3">
    <defs>
     <path id="mcc138b7ee0" d="M 642.457961 -52.425105 
L 642.457961 -52.354062 
L 643.66586 -52.354062 
L 644.873759 -52.354062 
L 646.081658 -52.354062 
L 647.289558 -52.354062 
L 648.497457 -52.354062 
L 649.705356 -52.354062 
L 650.913255 -52.354062 
L 652.121154 -52.354062 
L 653.329053 -52.354062 
L 654.536952 -52.354062 
L 655.744851 -52.354062 
L 656.952751 -52.354062 
L 658.16065 -52.354062 
L 659.368549 -52.354062 
L 660.576448 -52.354062 
L 661.784347 -52.354062 
L 662.992246 -52.354062 
L 664.200145 -52.354062 
L 665.408044 -52.354062 
L 666.615944 -52.354062 
L 667.823843 -52.354062 
L 669.031742 -52.354062 
L 670.239641 -52.354062 
L 671.44754 -52.354062 
L 672.655439 -52.354062 
L 673.863338 -52.354062 
L 675.071237 -52.354062 
L 676.279137 -52.354062 
L 677.487036 -52.354062 
L 678.694935 -52.354062 
L 679.902834 -52.354062 
L 681.110733 -52.354062 
L 682.318632 -52.354062 
L 683.526531 -52.354062 
L 684.73443 -52.354062 
L 685.94233 -52.354062 
L 687.150229 -52.354062 
L 688.358128 -52.354062 
L 689.566027 -52.354062 
L 690.773926 -52.354062 
L 691.981825 -52.354062 
L 693.189724 -52.354062 
L 694.397623 -52.354062 
L 695.605523 -52.354062 
L 696.813422 -52.354062 
L 698.021321 -52.354062 
L 699.22922 -52.354062 
L 700.437119 -52.354062 
L 701.645018 -52.354062 
L 702.852917 -52.354062 
L 704.060816 -52.354062 
L 705.268716 -52.354062 
L 706.476615 -52.354062 
L 707.684514 -52.354062 
L 708.892413 -52.354062 
L 710.100312 -52.354062 
L 711.308211 -52.354062 
L 712.51611 -52.354062 
L 713.724009 -52.354062 
L 714.931909 -52.354062 
L 716.139808 -52.354062 
L 717.347707 -52.354062 
L 718.555606 -52.354062 
L 719.763505 -52.354062 
L 720.971404 -52.354062 
L 722.179303 -52.354062 
L 723.387202 -52.354062 
L 724.595102 -52.354062 
L 725.803001 -52.354062 
L 727.0109 -52.354062 
L 728.218799 -52.354062 
L 729.426698 -52.354062 
L 730.634597 -52.354062 
L 731.842496 -52.354062 
L 733.050395 -52.354062 
L 734.258295 -52.354062 
L 735.466194 -52.354062 
L 736.674093 -52.354062 
L 737.881992 -52.354062 
L 739.089891 -52.354062 
L 740.29779 -52.354062 
L 741.505689 -52.354062 
L 742.713588 -52.354062 
L 743.921487 -52.354062 
L 745.129387 -52.354062 
L 746.337286 -52.354062 
L 747.545185 -52.354062 
L 748.753084 -52.354062 
L 749.960983 -52.354062 
L 751.168882 -52.354062 
L 752.376781 -52.354062 
L 753.58468 -52.354062 
L 754.79258 -52.354062 
L 756.000479 -52.354062 
L 757.208378 -52.354062 
L 758.416277 -52.354062 
L 759.624176 -52.354062 
L 760.832075 -52.354062 
L 762.039974 -52.354062 
L 763.247873 -52.354062 
L 764.455773 -52.354062 
L 765.663672 -52.354062 
L 766.871571 -52.354062 
L 768.07947 -52.354062 
L 769.287369 -52.354062 
L 770.495268 -52.354062 
L 771.703167 -52.354062 
L 772.911066 -52.354062 
L 774.118966 -52.354062 
L 775.326865 -52.354062 
L 776.534764 -52.354062 
L 777.742663 -52.354062 
L 778.950562 -52.354062 
L 780.158461 -52.354062 
L 781.36636 -52.354062 
L 782.574259 -52.354062 
L 783.782159 -52.354062 
L 784.990058 -52.354062 
L 786.197957 -52.354062 
L 787.405856 -52.354062 
L 788.613755 -52.354062 
L 789.821654 -52.354062 
L 791.029553 -52.354062 
L 792.237452 -52.354062 
L 793.445352 -52.354062 
L 794.653251 -52.354062 
L 795.86115 -52.354062 
L 797.069049 -52.354062 
L 798.276948 -52.354062 
L 799.484847 -52.354062 
L 800.692746 -52.354062 
L 801.900645 -52.354062 
L 803.108545 -52.354062 
L 804.316444 -52.354062 
L 805.524343 -52.354062 
L 806.732242 -52.354062 
L 807.940141 -52.354062 
L 809.14804 -52.354062 
L 810.355939 -52.354062 
L 811.563838 -52.354062 
L 812.771738 -52.354062 
L 813.979637 -52.354062 
L 815.187536 -52.354062 
L 816.395435 -52.354062 
L 817.603334 -52.354062 
L 818.811233 -52.354062 
L 820.019132 -52.354062 
L 821.227031 -52.354062 
L 822.434931 -52.354062 
L 823.64283 -52.354062 
L 824.850729 -52.354062 
L 826.058628 -52.354062 
L 827.266527 -52.354062 
L 828.474426 -52.354062 
L 829.682325 -52.354062 
L 830.890224 -52.354062 
L 832.098124 -52.354062 
L 833.306023 -52.354062 
L 834.513922 -52.354062 
L 835.721821 -52.354062 
L 836.92972 -52.354062 
L 838.137619 -52.354062 
L 839.345518 -52.354062 
L 840.553417 -52.354062 
L 841.761317 -52.354062 
L 842.969216 -52.354062 
L 844.177115 -52.354062 
L 845.385014 -52.354062 
L 846.592913 -52.354062 
L 847.800812 -52.354062 
L 849.008711 -52.354062 
L 850.21661 -52.354062 
L 851.42451 -52.354062 
L 852.632409 -52.354062 
L 853.840308 -52.354062 
L 855.048207 -52.354062 
L 856.256106 -52.354062 
L 857.464005 -52.354062 
L 858.671904 -52.354062 
L 859.879803 -52.354062 
L 861.087703 -52.354062 
L 862.295602 -52.354062 
L 863.503501 -52.354062 
L 864.7114 -52.354062 
L 865.919299 -52.354062 
L 867.127198 -52.354062 
L 868.335097 -52.354062 
L 869.542996 -52.354062 
L 870.750896 -52.354062 
L 871.958795 -52.354062 
L 873.166694 -52.354062 
L 874.374593 -52.354062 
L 875.582492 -52.354062 
L 876.790391 -52.354062 
L 877.99829 -52.354062 
L 879.206189 -52.354062 
L 880.414089 -52.354062 
L 881.621988 -52.354062 
L 882.829887 -52.354062 
L 882.829887 -53.009813 
L 882.829887 -53.009813 
L 881.621988 -53.242002 
L 880.414089 -53.547067 
L 879.206189 -53.944531 
L 877.99829 -54.45806 
L 876.790391 -55.116004 
L 875.582492 -55.95194 
L 874.374593 -57.005149 
L 873.166694 -58.321023 
L 871.958795 -59.951334 
L 870.750896 -61.954338 
L 869.542996 -64.394657 
L 868.335097 -67.342889 
L 867.127198 -70.874915 
L 865.919299 -75.070849 
L 864.7114 -80.013626 
L 863.503501 -85.787189 
L 862.295602 -92.474313 
L 861.087703 -100.154072 
L 859.879803 -108.899005 
L 858.671904 -118.77206 
L 857.464005 -129.823417 
L 856.256106 -142.087289 
L 855.048207 -155.578863 
L 853.840308 -170.291508 
L 852.632409 -186.194396 
L 851.42451 -203.2307 
L 850.21661 -221.31648 
L 849.008711 -240.340371 
L 847.800812 -260.164161 
L 846.592913 -280.624294 
L 845.385014 -301.534297 
L 844.177115 -322.688104 
L 842.969216 -343.864174 
L 841.761317 -364.830297 
L 840.553417 -385.348917 
L 839.345518 -405.182789 
L 838.137619 -424.10077 
L 836.92972 -441.883521 
L 835.721821 -458.328927 
L 834.513922 -473.257024 
L 833.306023 -486.514274 
L 832.098124 -497.977036 
L 830.890224 -507.554135 
L 829.682325 -515.18846 
L 828.474426 -520.857569 
L 827.266527 -524.573315 
L 826.058628 -526.380551 
L 824.850729 -526.354981 
L 823.64283 -524.600296 
L 822.434931 -521.244693 
L 821.227031 -516.436936 
L 820.019132 -510.342098 
L 818.811233 -503.137135 
L 817.603334 -495.006428 
L 816.395435 -486.137411 
L 815.187536 -476.716431 
L 813.979637 -466.924907 
L 812.771738 -456.935894 
L 811.563838 -446.911112 
L 810.355939 -436.998484 
L 809.14804 -427.330223 
L 807.940141 -418.021476 
L 806.732242 -409.169521 
L 805.524343 -400.853501 
L 804.316444 -393.134667 
L 803.108545 -386.057072 
L 801.900645 -379.648661 
L 800.692746 -373.922693 
L 799.484847 -368.879405 
L 798.276948 -364.507856 
L 797.069049 -360.787837 
L 795.86115 -357.691799 
L 794.653251 -355.186683 
L 793.445352 -353.235625 
L 792.237452 -351.799438 
L 791.029553 -350.837865 
L 789.821654 -350.310549 
L 788.613755 -350.177731 
L 787.405856 -350.400681 
L 786.197957 -350.941884 
L 784.990058 -351.765031 
L 783.782159 -352.834857 
L 782.574259 -354.116893 
L 781.36636 -355.577196 
L 780.158461 -357.182103 
L 778.950562 -358.898076 
L 777.742663 -360.691672 
L 776.534764 -362.529666 
L 775.326865 -364.37933 
L 774.118966 -366.208874 
L 772.911066 -367.988008 
L 771.703167 -369.688587 
L 770.495268 -371.285296 
L 769.287369 -372.756293 
L 768.07947 -374.083764 
L 766.871571 -375.254319 
L 765.663672 -376.259172 
L 764.455773 -377.094077 
L 763.247873 -377.75899 
L 762.039974 -378.257455 
L 760.832075 -378.59574 
L 759.624176 -378.781768 
L 758.416277 -378.823891 
L 757.208378 -378.729599 
L 756.000479 -378.504243 
L 754.79258 -378.149867 
L 753.58468 -377.664221 
L 752.376781 -377.040053 
L 751.168882 -376.264718 
L 749.960983 -375.320162 
L 748.753084 -374.183279 
L 747.545185 -372.82663 
L 746.337286 -371.2195 
L 745.129387 -369.329211 
L 743.921487 -367.122629 
L 742.713588 -364.567762 
L 741.505689 -361.635349 
L 740.29779 -358.300355 
L 739.089891 -354.543272 
L 737.881992 -350.351154 
L 736.674093 -345.718341 
L 735.466194 -340.646826 
L 734.258295 -335.146277 
L 733.050395 -329.233721 
L 731.842496 -322.932925 
L 730.634597 -316.273545 
L 729.426698 -309.290096 
L 728.218799 -302.020825 
L 727.0109 -294.506558 
L 725.803001 -286.789586 
L 724.595102 -278.912639 
L 723.387202 -270.918005 
L 722.179303 -262.846801 
L 720.971404 -254.738409 
L 719.763505 -246.630075 
L 718.555606 -238.556649 
L 717.347707 -230.550428 
L 716.139808 -222.641086 
L 714.931909 -214.855653 
L 713.724009 -207.218504 
L 712.51611 -199.751354 
L 711.308211 -192.473235 
L 710.100312 -185.400453 
L 708.892413 -178.546528 
L 707.684514 -171.922138 
L 706.476615 -165.535069 
L 705.268716 -159.390206 
L 704.060816 -153.48957 
L 702.852917 -147.832426 
L 701.645018 -142.415464 
L 700.437119 -137.233061 
L 699.22922 -132.277621 
L 698.021321 -127.539974 
L 696.813422 -123.009825 
L 695.605523 -118.676228 
L 694.397623 -114.52806 
L 693.189724 -110.554474 
L 691.981825 -106.745303 
L 690.773926 -103.091395 
L 689.566027 -99.584877 
L 688.358128 -96.219319 
L 687.150229 -92.98981 
L 685.94233 -89.892943 
L 684.73443 -86.926714 
L 683.526531 -84.090355 
L 682.318632 -81.384105 
L 681.110733 -78.808949 
L 679.902834 -76.366333 
L 678.694935 -74.057868 
L 677.487036 -71.885061 
L 676.279137 -69.849054 
L 675.071237 -67.950413 
L 673.863338 -66.188949 
L 672.655439 -64.563595 
L 671.44754 -63.072332 
L 670.239641 -61.712157 
L 669.031742 -60.479104 
L 667.823843 -59.368302 
L 666.615944 -58.374065 
L 665.408044 -57.490012 
L 664.200145 -56.709204 
L 662.992246 -56.024289 
L 661.784347 -55.427655 
L 660.576448 -54.911577 
L 659.368549 -54.46836 
L 658.16065 -54.090462 
L 656.952751 -53.770605 
L 655.744851 -53.501869 
L 654.536952 -53.277762 
L 653.329053 -53.092275 
L 652.121154 -52.939914 
L 650.913255 -52.815718 
L 649.705356 -52.715258 
L 648.497457 -52.634626 
L 647.289558 -52.570413 
L 646.081658 -52.519675 
L 644.873759 -52.479901 
L 643.66586 -52.448969 
L 642.457961 -52.425105 
z
" style="stroke: #ffa500"/>
    </defs>
    <g clip-path="url(#p341404b890)">
     <use xlink:href="#mcc138b7ee0" x="0" y="576" style="fill: #ffa500; fill-opacity: 0.25; stroke: #ffa500"/>
    </g>
   </g>
   <g id="matplotlib.axis_5">
    <g id="xtick_13">
     <g id="line2d_24">
      <g>
       <use xlink:href="#mf3953d0e99" x="613.001042" y="523.645938" style="stroke: #000000; stroke-width: 0.8"/>
      </g>
     </g>
     <g id="text_30">
      <!-- 0.0 -->
      <g transform="translate(605.049479 538.244375) scale(0.1 -0.1)">
       <use xlink:href="#DejaVuSans-30"/>
       <use xlink:href="#DejaVuSans-2e" x="63.623047"/>
       <use xlink:href="#DejaVuSans-30" x="95.410156"/>
      </g>
     </g>
    </g>
    <g id="xtick_14">
     <g id="line2d_25">
      <g>
       <use xlink:href="#mf3953d0e99" x="659.450521" y="523.645938" style="stroke: #000000; stroke-width: 0.8"/>
      </g>
     </g>
     <g id="text_31">
      <!-- 0.2 -->
      <g transform="translate(651.498958 538.244375) scale(0.1 -0.1)">
       <use xlink:href="#DejaVuSans-30"/>
       <use xlink:href="#DejaVuSans-2e" x="63.623047"/>
       <use xlink:href="#DejaVuSans-32" x="95.410156"/>
      </g>
     </g>
    </g>
    <g id="xtick_15">
     <g id="line2d_26">
      <g>
       <use xlink:href="#mf3953d0e99" x="705.9" y="523.645938" style="stroke: #000000; stroke-width: 0.8"/>
      </g>
     </g>
     <g id="text_32">
      <!-- 0.4 -->
      <g transform="translate(697.948438 538.244375) scale(0.1 -0.1)">
       <use xlink:href="#DejaVuSans-30"/>
       <use xlink:href="#DejaVuSans-2e" x="63.623047"/>
       <use xlink:href="#DejaVuSans-34" x="95.410156"/>
      </g>
     </g>
    </g>
    <g id="xtick_16">
     <g id="line2d_27">
      <g>
       <use xlink:href="#mf3953d0e99" x="752.349479" y="523.645938" style="stroke: #000000; stroke-width: 0.8"/>
      </g>
     </g>
     <g id="text_33">
      <!-- 0.6 -->
      <g transform="translate(744.397917 538.244375) scale(0.1 -0.1)">
       <use xlink:href="#DejaVuSans-30"/>
       <use xlink:href="#DejaVuSans-2e" x="63.623047"/>
       <use xlink:href="#DejaVuSans-36" x="95.410156"/>
      </g>
     </g>
    </g>
    <g id="xtick_17">
     <g id="line2d_28">
      <g>
       <use xlink:href="#mf3953d0e99" x="798.798958" y="523.645938" style="stroke: #000000; stroke-width: 0.8"/>
      </g>
     </g>
     <g id="text_34">
      <!-- 0.8 -->
      <g transform="translate(790.847396 538.244375) scale(0.1 -0.1)">
       <use xlink:href="#DejaVuSans-30"/>
       <use xlink:href="#DejaVuSans-2e" x="63.623047"/>
       <use xlink:href="#DejaVuSans-38" x="95.410156"/>
      </g>
     </g>
    </g>
    <g id="xtick_18">
     <g id="line2d_29">
      <g>
       <use xlink:href="#mf3953d0e99" x="845.248438" y="523.645938" style="stroke: #000000; stroke-width: 0.8"/>
      </g>
     </g>
     <g id="text_35">
      <!-- 1.0 -->
      <g transform="translate(837.296875 538.244375) scale(0.1 -0.1)">
       <use xlink:href="#DejaVuSans-31"/>
       <use xlink:href="#DejaVuSans-2e" x="63.623047"/>
       <use xlink:href="#DejaVuSans-30" x="95.410156"/>
      </g>
     </g>
    </g>
    <g id="text_36">
     <!-- Cosine Similarity of  -->
     <g transform="translate(679.108333 551.9225) scale(0.1 -0.1)">
      <use xlink:href="#DejaVuSans-43"/>
      <use xlink:href="#DejaVuSans-6f" x="69.824219"/>
      <use xlink:href="#DejaVuSans-73" x="131.005859"/>
      <use xlink:href="#DejaVuSans-69" x="183.105469"/>
      <use xlink:href="#DejaVuSans-6e" x="210.888672"/>
      <use xlink:href="#DejaVuSans-65" x="274.267578"/>
      <use xlink:href="#DejaVuSans-20" x="335.791016"/>
      <use xlink:href="#DejaVuSans-53" x="367.578125"/>
      <use xlink:href="#DejaVuSans-69" x="431.054688"/>
      <use xlink:href="#DejaVuSans-6d" x="458.837891"/>
      <use xlink:href="#DejaVuSans-69" x="556.25"/>
      <use xlink:href="#DejaVuSans-6c" x="584.033203"/>
      <use xlink:href="#DejaVuSans-61" x="611.816406"/>
      <use xlink:href="#DejaVuSans-72" x="673.095703"/>
      <use xlink:href="#DejaVuSans-69" x="714.208984"/>
      <use xlink:href="#DejaVuSans-74" x="741.992188"/>
      <use xlink:href="#DejaVuSans-79" x="781.201172"/>
      <use xlink:href="#DejaVuSans-20" x="840.380859"/>
      <use xlink:href="#DejaVuSans-6f" x="872.167969"/>
      <use xlink:href="#DejaVuSans-66" x="933.349609"/>
      <use xlink:href="#DejaVuSans-20" x="968.554688"/>
     </g>
     <!-- AB Non-Black Tracts to CD Black Tracts -->
     <g transform="translate(632.23099 563.120313) scale(0.1 -0.1)">
      <use xlink:href="#DejaVuSans-41"/>
      <use xlink:href="#DejaVuSans-42" x="68.408203"/>
      <use xlink:href="#DejaVuSans-20" x="137.011719"/>
      <use xlink:href="#DejaVuSans-4e" x="168.798828"/>
      <use xlink:href="#DejaVuSans-6f" x="243.603516"/>
      <use xlink:href="#DejaVuSans-6e" x="304.785156"/>
      <use xlink:href="#DejaVuSans-2d" x="368.164062"/>
      <use xlink:href="#DejaVuSans-42" x="400.623047"/>
      <use xlink:href="#DejaVuSans-6c" x="469.226562"/>
      <use xlink:href="#DejaVuSans-61" x="497.009766"/>
      <use xlink:href="#DejaVuSans-63" x="558.289062"/>
      <use xlink:href="#DejaVuSans-6b" x="613.269531"/>
      <use xlink:href="#DejaVuSans-20" x="671.179688"/>
      <use xlink:href="#DejaVuSans-54" x="702.966797"/>
      <use xlink:href="#DejaVuSans-72" x="749.300781"/>
      <use xlink:href="#DejaVuSans-61" x="790.414062"/>
      <use xlink:href="#DejaVuSans-63" x="851.693359"/>
      <use xlink:href="#DejaVuSans-74" x="906.673828"/>
      <use xlink:href="#DejaVuSans-73" x="945.882812"/>
      <use xlink:href="#DejaVuSans-20" x="997.982422"/>
      <use xlink:href="#DejaVuSans-74" x="1029.769531"/>
      <use xlink:href="#DejaVuSans-6f" x="1068.978516"/>
      <use xlink:href="#DejaVuSans-20" x="1130.160156"/>
      <use xlink:href="#DejaVuSans-43" x="1161.947266"/>
      <use xlink:href="#DejaVuSans-44" x="1231.771484"/>
      <use xlink:href="#DejaVuSans-20" x="1308.773438"/>
      <use xlink:href="#DejaVuSans-42" x="1340.560547"/>
      <use xlink:href="#DejaVuSans-6c" x="1409.164062"/>
      <use xlink:href="#DejaVuSans-61" x="1436.947266"/>
      <use xlink:href="#DejaVuSans-63" x="1498.226562"/>
      <use xlink:href="#DejaVuSans-6b" x="1553.207031"/>
      <use xlink:href="#DejaVuSans-20" x="1611.117188"/>
      <use xlink:href="#DejaVuSans-54" x="1642.904297"/>
      <use xlink:href="#DejaVuSans-72" x="1689.238281"/>
      <use xlink:href="#DejaVuSans-61" x="1730.351562"/>
      <use xlink:href="#DejaVuSans-63" x="1791.630859"/>
      <use xlink:href="#DejaVuSans-74" x="1846.611328"/>
      <use xlink:href="#DejaVuSans-73" x="1885.820312"/>
     </g>
    </g>
   </g>
   <g id="matplotlib.axis_6">
    <g id="ytick_12">
     <g id="line2d_30">
      <g>
       <use xlink:href="#m890a04fe35" x="613.001042" y="523.645938" style="stroke: #000000; stroke-width: 0.8"/>
      </g>
     </g>
     <g id="text_37">
      <!-- 0.0 -->
      <g transform="translate(590.097917 527.445156) scale(0.1 -0.1)">
       <use xlink:href="#DejaVuSans-30"/>
       <use xlink:href="#DejaVuSans-2e" x="63.623047"/>
       <use xlink:href="#DejaVuSans-30" x="95.410156"/>
      </g>
     </g>
    </g>
    <g id="ytick_13">
     <g id="line2d_31">
      <g>
       <use xlink:href="#m890a04fe35" x="613.001042" y="419.551743" style="stroke: #000000; stroke-width: 0.8"/>
      </g>
     </g>
     <g id="text_38">
      <!-- 0.5 -->
      <g transform="translate(590.097917 423.350962) scale(0.1 -0.1)">
       <use xlink:href="#DejaVuSans-30"/>
       <use xlink:href="#DejaVuSans-2e" x="63.623047"/>
       <use xlink:href="#DejaVuSans-35" x="95.410156"/>
      </g>
     </g>
    </g>
    <g id="ytick_14">
     <g id="line2d_32">
      <g>
       <use xlink:href="#m890a04fe35" x="613.001042" y="315.457548" style="stroke: #000000; stroke-width: 0.8"/>
      </g>
     </g>
     <g id="text_39">
      <!-- 1.0 -->
      <g transform="translate(590.097917 319.256767) scale(0.1 -0.1)">
       <use xlink:href="#DejaVuSans-31"/>
       <use xlink:href="#DejaVuSans-2e" x="63.623047"/>
       <use xlink:href="#DejaVuSans-30" x="95.410156"/>
      </g>
     </g>
    </g>
    <g id="ytick_15">
     <g id="line2d_33">
      <g>
       <use xlink:href="#m890a04fe35" x="613.001042" y="211.363353" style="stroke: #000000; stroke-width: 0.8"/>
      </g>
     </g>
     <g id="text_40">
      <!-- 1.5 -->
      <g transform="translate(590.097917 215.162572) scale(0.1 -0.1)">
       <use xlink:href="#DejaVuSans-31"/>
       <use xlink:href="#DejaVuSans-2e" x="63.623047"/>
       <use xlink:href="#DejaVuSans-35" x="95.410156"/>
      </g>
     </g>
    </g>
    <g id="ytick_16">
     <g id="line2d_34">
      <g>
       <use xlink:href="#m890a04fe35" x="613.001042" y="107.269159" style="stroke: #000000; stroke-width: 0.8"/>
      </g>
     </g>
     <g id="text_41">
      <!-- 2.0 -->
      <g transform="translate(590.097917 111.068377) scale(0.1 -0.1)">
       <use xlink:href="#DejaVuSans-32"/>
       <use xlink:href="#DejaVuSans-2e" x="63.623047"/>
       <use xlink:href="#DejaVuSans-30" x="95.410156"/>
      </g>
     </g>
    </g>
    <g id="text_42">
     <!-- Density -->
     <g transform="translate(584.018229 293.790625) rotate(-90) scale(0.1 -0.1)">
      <use xlink:href="#DejaVuSans-44"/>
      <use xlink:href="#DejaVuSans-65" x="77.001953"/>
      <use xlink:href="#DejaVuSans-6e" x="138.525391"/>
      <use xlink:href="#DejaVuSans-73" x="201.904297"/>
      <use xlink:href="#DejaVuSans-69" x="254.003906"/>
      <use xlink:href="#DejaVuSans-74" x="281.787109"/>
      <use xlink:href="#DejaVuSans-79" x="320.996094"/>
     </g>
    </g>
   </g>
   <g id="patch_13">
    <path d="M 613.001042 523.645938 
L 613.001042 25.918125 
" style="fill: none; stroke: #000000; stroke-width: 0.8; stroke-linejoin: miter; stroke-linecap: square"/>
   </g>
   <g id="patch_14">
    <path d="M 845.248438 523.645938 
L 845.248438 25.918125 
" style="fill: none; stroke: #000000; stroke-width: 0.8; stroke-linejoin: miter; stroke-linecap: square"/>
   </g>
   <g id="patch_15">
    <path d="M 613.001042 523.645938 
L 845.248438 523.645938 
" style="fill: none; stroke: #000000; stroke-width: 0.8; stroke-linejoin: miter; stroke-linecap: square"/>
   </g>
   <g id="patch_16">
    <path d="M 613.001042 25.918125 
L 845.248438 25.918125 
" style="fill: none; stroke: #000000; stroke-width: 0.8; stroke-linejoin: miter; stroke-linecap: square"/>
   </g>
   <g id="text_43">
    <!-- AB Graded Non-Black vs CD Graded Black -->
    <g transform="translate(603.393802 19.918125) scale(0.12 -0.12)">
     <use xlink:href="#DejaVuSans-41"/>
     <use xlink:href="#DejaVuSans-42" x="68.408203"/>
     <use xlink:href="#DejaVuSans-20" x="137.011719"/>
     <use xlink:href="#DejaVuSans-47" x="168.798828"/>
     <use xlink:href="#DejaVuSans-72" x="246.289062"/>
     <use xlink:href="#DejaVuSans-61" x="287.402344"/>
     <use xlink:href="#DejaVuSans-64" x="348.681641"/>
     <use xlink:href="#DejaVuSans-65" x="412.158203"/>
     <use xlink:href="#DejaVuSans-64" x="473.681641"/>
     <use xlink:href="#DejaVuSans-20" x="537.158203"/>
     <use xlink:href="#DejaVuSans-4e" x="568.945312"/>
     <use xlink:href="#DejaVuSans-6f" x="643.75"/>
     <use xlink:href="#DejaVuSans-6e" x="704.931641"/>
     <use xlink:href="#DejaVuSans-2d" x="768.310547"/>
     <use xlink:href="#DejaVuSans-42" x="800.769531"/>
     <use xlink:href="#DejaVuSans-6c" x="869.373047"/>
     <use xlink:href="#DejaVuSans-61" x="897.15625"/>
     <use xlink:href="#DejaVuSans-63" x="958.435547"/>
     <use xlink:href="#DejaVuSans-6b" x="1013.416016"/>
     <use xlink:href="#DejaVuSans-20" x="1071.326172"/>
     <use xlink:href="#DejaVuSans-76" x="1103.113281"/>
     <use xlink:href="#DejaVuSans-73" x="1162.292969"/>
     <use xlink:href="#DejaVuSans-20" x="1214.392578"/>
     <use xlink:href="#DejaVuSans-43" x="1246.179688"/>
     <use xlink:href="#DejaVuSans-44" x="1316.003906"/>
     <use xlink:href="#DejaVuSans-20" x="1393.005859"/>
     <use xlink:href="#DejaVuSans-47" x="1424.792969"/>
     <use xlink:href="#DejaVuSans-72" x="1502.283203"/>
     <use xlink:href="#DejaVuSans-61" x="1543.396484"/>
     <use xlink:href="#DejaVuSans-64" x="1604.675781"/>
     <use xlink:href="#DejaVuSans-65" x="1668.152344"/>
     <use xlink:href="#DejaVuSans-64" x="1729.675781"/>
     <use xlink:href="#DejaVuSans-20" x="1793.152344"/>
     <use xlink:href="#DejaVuSans-42" x="1824.939453"/>
     <use xlink:href="#DejaVuSans-6c" x="1893.542969"/>
     <use xlink:href="#DejaVuSans-61" x="1921.326172"/>
     <use xlink:href="#DejaVuSans-63" x="1982.605469"/>
     <use xlink:href="#DejaVuSans-6b" x="2037.585938"/>
    </g>
   </g>
  </g>
 </g>
 <defs>
  <clipPath id="p8785411381">
   <rect x="37.840625" y="25.918125" width="232.247396" height="497.727813"/>
  </clipPath>
  <clipPath id="p1927551b6e">
   <rect x="325.420833" y="25.918125" width="232.247396" height="497.727813"/>
  </clipPath>
  <clipPath id="p341404b890">
   <rect x="613.001042" y="25.918125" width="232.247396" height="497.727813"/>
  </clipPath>
 </defs>
</svg>
